0
SECTION
2
HEADER
9
$INSUNITS
70
4
9
$ACADVER
1
AC1014
9
$HANDSEED
5
FFFF
0
ENDSEC
0
SECTION
2
TABLES
0
TABLE
2
VPORT
5
8
100
AcDbSymbolTable
0
ENDTAB
0
TABLE
2
LTYPE
5
5
100
AcDbSymbolTable
0
LTYPE
5
14
100
AcDbSymbolTableRecord
100
AcDbLinetypeTableRecord
2
BYBLOCK
70
0
0
LTYPE
5
15
100
AcDbSymbolTableRecord
100
AcDbLinetypeTableRecord
2
BYLAYER
70
0
0
ENDTAB
0
TABLE
2
LAYER
5
2
100
AcDbSymbolTable
70
2
0
LAYER
5
50
100
AcDbSymbolTableRecord
100
AcDbLayerTableRecord
2
0
70
0
6
CONTINUOUS
0
ENDTAB
0
TABLE
2
STYLE
5
3
100
AcDbSymbolTable
70
1
0
STYLE
5
11
100
AcDbSymbolTableRecord
100
AcDbTextStyleTableRecord
2
STANDARD
70
0
0
ENDTAB
0
TABLE
2
VIEW
5
6
100
AcDbSymbolTable
70
0
0
ENDTAB
0
TABLE
2
UCS
5
7
100
AcDbSymbolTable
70
0
0
ENDTAB
0
TABLE
2
APPID
5
9
100
AcDbSymbolTable
70
2
0
APPID
5
12
100
AcDbSymbolTableRecord
100
AcDbRegAppTableRecord
2
ACAD
70
0
0
ENDTAB
0
TABLE
2
DIMSTYLE
5
A
100
AcDbSymbolTable
70
1
0
ENDTAB
0
TABLE
2
BLOCK_RECORD
5
1
100
AcDbSymbolTable
70
1
0
BLOCK_RECORD
5
1F
100
AcDbSymbolTableRecord
100
AcDbBlockTableRecord
2
*MODEL_SPACE
0
BLOCK_RECORD
5
1B
100
AcDbSymbolTableRecord
100
AcDbBlockTableRecord
2
*PAPER_SPACE
0
ENDTAB
0
ENDSEC
0
SECTION
2
BLOCKS
0
BLOCK
5
20
100
AcDbEntity
100
AcDbBlockBegin
2
*MODEL_SPACE
0
ENDBLK
5
21
100
AcDbEntity
100
AcDbBlockEnd
0
BLOCK
5
1C
100
AcDbEntity
100
AcDbBlockBegin
2
*PAPER_SPACE
0
ENDBLK
5
1D
100
AcDbEntity
100
AcDbBlockEnd
0
ENDSEC
0
SECTION
2
ENTITIES
0
LWPOLYLINE
5
100
100
AcDbEntity
8
0
100
AcDbPolyline
90
44
70
1
43
0.0
10
-147.37113788867552
20
95.249996185302734
10
-262.20026508887992
20
95.249996185302749
42
-0.41420098730812255
10
-264.20026508703654
20
97.249910317006197
10
-264.20031655999264
20
98.448791816041719
42
1.0015807978001809
10
-269.20011219271385
20
98.493303125815501
10
-269.20013788910319
20
97.249954851124997
42
-0.41420750913586762
10
-271.20013788867601
20
95.249996185302734
10
-283.75000762939459
20
95.249996185302734
42
0.41421356237308982
10
-285.75000762939459
20
93.249996185302734
10
-285.75000762939459
20
1.9999961853027237
42
0.4142135623731002
10
-283.75000762939453
20
-3.8146972691777137e-06
10
-271.20013788867601
20
-3.8146973010966256e-06
42
-0.41420750913587279
10
-269.20013788910319
20
-1.9999624805195815
10
-269.20011219271385
20
-3.2433107552099649
42
1.0015807978001809
10
-264.20031655999264
20
-3.198799445436169
10
-264.2002650870366
20
-1.9999179464006824
42
-0.41420098730810689
10
-262.20026508887992
20
-3.8146972869412821e-06
10
-147.37113788867555
20
-3.8146972833330572e-06
42
-0.4142075091358754
10
-145.37113788910264
20
-1.9999624805195815
10
-145.37111219271353
20
-3.2433107552099649
42
1.0015807978001809
10
-140.37131655999249
20
-3.198799445436169
10
-140.37126508703619
20
-1.9999179464007713
42
-0.41420098730811988
10
-138.37126508887954
20
-3.8146972869412821e-06
10
-23.5421378886765
20
-3.8146972655694888e-06
42
-0.41420750913585719
10
-21.542137889103614
20
-1.9999624805194749
10
-21.542112192713532
20
-3.2433107552099649
42
1.0015807978001985
10
-16.542316559992507
20
-3.1987994454362756
10
-16.542265087036142
20
-1.9999179464007713
42
-0.41420098730811988
10
-14.542265088879489
20
-3.8146972869412821e-06
10
-2.0000076293945312
20
-3.8146972691777137e-06
42
0.41421356237309509
10
-7.6293945383554274e-06
20
1.9999961853027237
10
-7.6293945028282906e-06
20
93.249996185302734
42
0.41421356237309509
10
-2.0000076293945312
20
95.249996185302749
10
-14.542265088879489
20
95.24999618530272
42
-0.41420098730811988
10
-16.542265087036157
20
97.249910317006226
10
-16.542316559992507
20
98.448791816041677
42
1.0015807978001632
10
-21.542112192713745
20
98.493303125815444
10
-21.542137889103635
20
97.249954851125011
42
-0.41420750913587018
10
-23.5421378886765
20
95.249996185302734
10
-138.37126508887954
20
95.24999618530272
42
-0.41420098730811988
10
-140.37126508703619
20
97.249910317006226
10
-140.37131655999252
20
98.448791816041691
42
1.0015807978001632
10
-145.37111219271372
20
98.493303125815487
10
-145.37113788910264
20
97.249954851124997
42
-0.41420750913586762
0
LWPOLYLINE
5
101
100
AcDbEntity
8
0
100
AcDbPolyline
90
8
70
1
43
0.0
10
-68.912507629394526
20
79.224996185302729
42
0.41421356237309509
10
-68.412507629394526
20
78.724996185302729
10
-55.412507629394518
20
78.724996185302729
42
0.41421356237309509
10
-54.912507629394511
20
79.224996185302729
10
-54.912507629394511
20
92.224996185302729
42
0.41421356237309509
10
-55.412507629394518
20
92.724996185302743
10
-68.412507629394526
20
92.724996185302743
42
0.41421356237309509
10
-68.912507629394497
20
92.224996185302729
0
LWPOLYLINE
5
102
100
AcDbEntity
8
0
100
AcDbPolyline
90
8
70
1
43
0.0
10
-45.100007629394518
20
79.224996185302729
42
0.41421356237309509
10
-44.600007629394511
20
78.724996185302729
10
-31.600007629394504
20
78.724996185302729
42
0.41421356237309509
10
-31.100007629394497
20
79.224996185302729
10
-31.100007629394497
20
92.224996185302729
42
0.41421356237309509
10
-31.600007629394504
20
92.724996185302743
10
-44.600007629394511
20
92.724996185302743
42
0.41421356237309509
10
-45.100007629394518
20
92.224996185302729
0
LWPOLYLINE
5
103
100
AcDbEntity
8
0
100
AcDbPolyline
90
8
70
1
43
0.0
10
-21.28750762939454
20
79.224996185302729
42
0.41421356237309509
10
-20.787507629394533
20
78.724996185302729
10
-7.7875076293945256
20
78.724996185302729
42
0.41421356237309509
10
-7.287507629394554
20
79.224996185302729
10
-7.2875076293945185
20
92.224996185302729
42
0.41421356237309509
10
-7.7875076293945256
20
92.724996185302743
10
-20.787507629394533
20
92.724996185302743
42
0.41421356237309509
10
-21.28750762939454
20
92.224996185302729
0
LWPOLYLINE
5
104
100
AcDbEntity
8
0
100
AcDbPolyline
90
8
70
1
43
0.0
10
-198.2875076293945
20
59.674996185302724
10
-211.28750762939455
20
59.67499618530276
42
-0.41421356237309509
10
-211.7875076293945
20
60.174996185302732
10
-211.7875076293945
20
73.174996185302746
42
-0.41421356237309509
10
-211.28750762939455
20
73.674996185302732
10
-198.2875076293945
20
73.674996185302717
42
-0.41421356237309509
10
-197.78750762939453
20
73.174996185302746
10
-197.7875076293945
20
60.174996185302732
42
-0.41421356237309509
0
LWPOLYLINE
5
105
100
AcDbEntity
8
0
100
AcDbPolyline
90
8
70
1
43
0.0
10
-217.33750762939454
20
59.674996185302724
10
-230.33750762939451
20
59.674996185302724
42
-0.41421356237309509
10
-230.83750762939451
20
60.174996185302732
10
-230.83750762939451
20
73.174996185302746
42
-0.41421356237309509
10
-230.33750762939451
20
73.674996185302732
10
-217.33750762939454
20
73.674996185302746
42
-0.41421356237309509
10
-216.83750762939454
20
73.174996185302746
10
-216.83750762939454
20
60.174996185302732
42
-0.41421356237309509
0
LWPOLYLINE
5
106
100
AcDbEntity
8
0
100
AcDbPolyline
90
8
70
1
43
0.0
10
-179.23750762939451
20
59.674996185302724
10
-192.23750762939454
20
59.674996185302724
42
-0.41421356237309509
10
-192.73750762939454
20
60.174996185302732
10
-192.73750762939449
20
73.174996185302746
42
-0.41421356237309509
10
-192.23750762939454
20
73.674996185302732
10
-179.23750762939451
20
73.674996185302746
42
-0.41421356237309509
10
-178.73750762939451
20
73.174996185302746
10
-178.73750762939451
20
60.174996185302732
42
-0.41421356237309509
0
LWPOLYLINE
5
107
100
AcDbEntity
8
0
100
AcDbPolyline
90
8
70
1
43
0.0
10
-160.18750762939453
20
59.674996185302724
10
-173.18750762939453
20
59.674996185302724
42
-0.41421356237309509
10
-173.68750762939453
20
60.174996185302732
10
-173.68750762939447
20
73.174996185302746
42
-0.41421356237309509
10
-173.18750762939453
20
73.674996185302732
10
-160.18750762939453
20
73.67499618530276
42
-0.41421356237309509
10
-159.68750762939453
20
73.174996185302746
10
-159.68750762939453
20
60.174996185302732
42
-0.41421356237309509
0
LWPOLYLINE
5
108
100
AcDbEntity
8
0
100
AcDbPolyline
90
8
70
1
43
0.0
10
-64.937507629394531
20
59.674996185302732
42
0.41421356237309509
10
-64.437507629394517
20
60.174996185302732
10
-64.437507629394517
20
73.174996185302746
42
0.41421356237309509
10
-64.937507629394531
20
73.674996185302732
10
-77.937507629394531
20
73.674996185302732
42
0.41421356237309509
10
-78.437507629394503
20
73.174996185302746
10
-78.437507629394531
20
60.174996185302732
42
0.41421356237309509
10
-77.937507629394531
20
59.674996185302724
0
LWPOLYLINE
5
109
100
AcDbEntity
8
0
100
AcDbPolyline
90
8
70
1
43
0.0
10
-103.03750762939451
20
59.674996185302732
42
0.41421356237309509
10
-102.5375076293945
20
60.174996185302732
10
-102.5375076293945
20
73.174996185302746
42
0.41421356237309509
10
-103.03750762939451
20
73.674996185302732
10
-116.03750762939453
20
73.674996185302732
42
0.41421356237309509
10
-116.53750762939453
20
73.174996185302746
10
-116.53750762939453
20
60.174996185302732
42
0.41421356237309509
10
-116.03750762939453
20
59.674996185302724
0
LWPOLYLINE
5
110
100
AcDbEntity
8
0
100
AcDbPolyline
90
8
70
1
43
0.0
10
-122.08750762939452
20
59.674996185302724
10
-135.08750762939454
20
59.674996185302724
42
-0.41421356237309509
10
-135.58750762939454
20
60.174996185302732
10
-135.58750762939451
20
73.174996185302746
42
-0.41421356237309509
10
-135.08750762939454
20
73.674996185302732
10
-122.08750762939452
20
73.674996185302746
42
-0.41421356237309509
10
-121.58750762939451
20
73.174996185302746
10
-121.58750762939451
20
60.174996185302732
42
-0.41421356237309509
0
LWPOLYLINE
5
111
100
AcDbEntity
8
0
100
AcDbPolyline
90
8
70
1
43
0.0
10
-83.987507629394543
20
59.674996185302732
42
0.41421356237309509
10
-83.487507629394528
20
60.174996185302732
10
-83.487507629394528
20
73.174996185302746
42
0.41421356237309509
10
-83.987507629394543
20
73.674996185302732
10
-96.987507629394543
20
73.674996185302732
42
0.41421356237309509
10
-97.487507629394543
20
73.174996185302746
10
-97.487507629394543
20
60.174996185302732
42
0.41421356237309509
10
-96.987507629394543
20
59.674996185302724
0
LWPOLYLINE
5
112
100
AcDbEntity
8
0
100
AcDbPolyline
90
8
70
1
43
0.0
10
-45.887507629394513
20
59.674996185302724
10
-58.88750762939452
20
59.674996185302724
42
-0.41421356237309509
10
-59.387507629394527
20
60.174996185302732
10
-59.387507629394506
20
73.174996185302746
42
-0.41421356237309509
10
-58.88750762939452
20
73.674996185302732
10
-45.887507629394513
20
73.674996185302746
42
-0.41421356237309509
10
-45.387507629394506
20
73.174996185302746
10
-45.387507629394506
20
60.174996185302732
42
-0.41421356237309509
0
LWPOLYLINE
5
113
100
AcDbEntity
8
0
100
AcDbPolyline
90
8
70
1
43
0.0
10
-141.13750762939452
20
59.674996185302724
10
-154.13750762939452
20
59.674996185302724
42
-0.41421356237309509
10
-154.63750762939452
20
60.174996185302732
10
-154.63750762939449
20
73.174996185302746
42
-0.41421356237309509
10
-154.13750762939452
20
73.674996185302732
10
-141.13750762939452
20
73.674996185302746
42
-0.41421356237309509
10
-140.63750762939452
20
73.174996185302746
10
-140.63750762939452
20
60.174996185302732
42
-0.41421356237309509
0
LWPOLYLINE
5
114
100
AcDbEntity
8
0
100
AcDbPolyline
90
8
70
1
43
0.0
10
-169.71250762939457
20
40.624996185302734
10
-182.71250762939451
20
40.62499618530272
42
-0.41421356237309509
10
-183.21250762939454
20
41.124996185302727
10
-183.21250762939454
20
54.124996185302734
42
-0.41421356237309509
10
-182.71250762939451
20
54.624996185302734
10
-169.71250762939457
20
54.624996185302777
42
-0.41421356237309509
10
-169.21250762939451
20
54.124996185302734
10
-169.21250762939454
20
41.124996185302727
42
-0.41421356237309509
0
LWPOLYLINE
5
115
100
AcDbEntity
8
0
100
AcDbPolyline
90
8
70
1
43
0.0
10
-226.86250762939451
20
40.624996185302734
10
-239.86250762939451
20
40.62499618530272
42
-0.41421356237309509
10
-240.36250762939454
20
41.124996185302727
10
-240.36250762939454
20
54.124996185302734
42
-0.41421356237309509
10
-239.86250762939451
20
54.624996185302734
10
-226.86250762939451
20
54.624996185302741
42
-0.41421356237309509
10
-226.36250762939451
20
54.124996185302734
10
-226.36250762939451
20
41.124996185302727
42
-0.41421356237309509
0
LWPOLYLINE
5
116
100
AcDbEntity
8
0
100
AcDbPolyline
90
8
70
1
43
0.0
10
-202.26250762939452
20
41.124996185302727
10
-202.26250762939455
20
54.124996185302734
42
-0.41421356237309509
10
-201.76250762939452
20
54.624996185302734
10
-188.76250762939452
20
54.624996185302741
42
-0.41421356237309509
10
-188.26250762939452
20
54.124996185302734
10
-188.26250762939452
20
41.124996185302727
42
-0.41421356237309509
10
-188.76250762939452
20
40.624996185302734
10
-201.76250762939452
20
40.624996185302756
42
-0.41421356237309509
0
LWPOLYLINE
5
117
100
AcDbEntity
8
0
100
AcDbPolyline
90
8
70
1
43
0.0
10
-150.66250762939453
20
40.624996185302734
10
-163.6625076293945
20
40.62499618530272
42
-0.41421356237309509
10
-164.16250762939453
20
41.124996185302727
10
-164.16250762939453
20
54.124996185302734
42
-0.41421356237309509
10
-163.6625076293945
20
54.624996185302734
10
-150.66250762939453
20
54.624996185302741
42
-0.41421356237309509
10
-150.16250762939453
20
54.124996185302734
10
-150.16250762939453
20
41.124996185302727
42
-0.41421356237309509
0
LWPOLYLINE
5
118
100
AcDbEntity
8
0
100
AcDbPolyline
90
8
70
1
43
0.0
10
-207.81250762939453
20
40.624996185302734
10
-220.81250762939453
20
40.624996185302756
42
-0.41421356237309509
10
-221.31250762939453
20
41.124996185302727
10
-221.31250762939456
20
54.124996185302734
42
-0.41421356237309509
10
-220.81250762939453
20
54.624996185302734
10
-207.81250762939453
20
54.624996185302741
42
-0.41421356237309509
10
-207.31250762939453
20
54.124996185302734
10
-207.31250762939453
20
41.124996185302727
42
-0.41421356237309509
0
LWPOLYLINE
5
119
100
AcDbEntity
8
0
100
AcDbPolyline
90
8
70
1
43
0.0
10
-131.61250762939454
20
40.624996185302734
10
-144.61250762939454
20
40.62499618530272
42
-0.41421356237309509
10
-145.11250762939454
20
41.124996185302727
10
-145.11250762939454
20
54.124996185302734
42
-0.41421356237309509
10
-144.61250762939454
20
54.624996185302734
10
-131.61250762939454
20
54.624996185302741
42
-0.41421356237309509
10
-131.11250762939451
20
54.124996185302734
10
-131.11250762939451
20
41.124996185302727
42
-0.41421356237309509
0
LWPOLYLINE
5
120
100
AcDbEntity
8
0
100
AcDbPolyline
90
8
70
1
43
0.0
10
-112.56250762939452
20
40.624996185302734
10
-125.56250762939453
20
40.62499618530272
42
-0.41421356237309509
10
-126.06250762939453
20
41.124996185302727
10
-126.06250762939453
20
54.124996185302734
42
-0.41421356237309509
10
-125.56250762939453
20
54.624996185302734
10
-112.56250762939452
20
54.624996185302741
42
-0.41421356237309509
10
-112.0625076293945
20
54.124996185302734
10
-112.0625076293945
20
41.124996185302727
42
-0.41421356237309509
0
LWPOLYLINE
5
121
100
AcDbEntity
8
0
100
AcDbPolyline
90
8
70
1
43
0.0
10
-93.512507629394506
20
40.624996185302734
10
-106.51250762939452
20
40.62499618530272
42
-0.41421356237309509
10
-107.01250762939452
20
41.124996185302727
10
-107.01250762939452
20
54.124996185302734
42
-0.41421356237309509
10
-106.51250762939452
20
54.624996185302734
10
-93.512507629394506
20
54.624996185302741
42
-0.41421356237309509
10
-93.012507629394491
20
54.124996185302734
10
-93.012507629394491
20
41.124996185302727
42
-0.41421356237309509
0
LWPOLYLINE
5
122
100
AcDbEntity
8
0
100
AcDbPolyline
90
8
70
1
43
0.0
10
-74.462507629394537
20
40.624996185302734
10
-87.462507629394537
20
40.62499618530272
42
-0.41421356237309509
10
-87.962507629394537
20
41.124996185302727
10
-87.962507629394537
20
54.124996185302734
42
-0.41421356237309509
10
-87.462507629394537
20
54.624996185302734
10
-74.462507629394537
20
54.624996185302741
42
-0.41421356237309509
10
-73.962507629394523
20
54.124996185302734
10
-73.962507629394537
20
41.124996185302727
42
-0.41421356237309509
0
LWPOLYLINE
5
123
100
AcDbEntity
8
0
100
AcDbPolyline
90
8
70
1
43
0.0
10
-55.412507629394518
20
40.624996185302734
42
0.41421356237309509
10
-54.912507629394511
20
41.124996185302727
10
-54.912507629394511
20
54.124996185302734
42
0.41421356237309509
10
-55.412507629394518
20
54.624996185302734
10
-68.412507629394526
20
54.624996185302734
42
0.41421356237309509
10
-68.912507629394497
20
54.124996185302734
10
-68.912507629394526
20
41.124996185302727
42
0.41421356237309509
10
-68.412507629394526
20
40.624996185302734
0
LWPOLYLINE
5
124
100
AcDbEntity
8
0
100
AcDbPolyline
90
8
70
1
43
0.0
10
-36.362507629394543
20
40.624996185302734
10
-49.362507629394514
20
40.62499618530272
42
-0.41421356237309509
10
-49.862507629394521
20
41.124996185302727
10
-49.862507629394514
20
54.124996185302734
42
-0.41421356237309509
10
-49.362507629394514
20
54.624996185302734
10
-36.362507629394543
20
54.624996185302741
42
-0.41421356237309509
10
-35.862507629394536
20
54.124996185302734
10
-35.862507629394543
20
41.124996185302727
42
-0.41421356237309509
0
LWPOLYLINE
5
125
100
AcDbEntity
8
0
100
AcDbPolyline
90
8
70
1
43
0.0
10
-5.4062576293945241
20
40.624996185302734
10
-23.168757629394499
20
40.62499618530272
42
-0.41421356237309509
10
-23.668757629394506
20
41.124996185302727
10
-23.668757629394499
20
54.124996185302734
42
-0.41421356237309509
10
-23.168757629394499
20
54.624996185302734
10
-5.4062576293945241
20
54.624996185302741
42
-0.41421356237309509
10
-4.906257629394517
20
54.124996185302734
10
-4.9062576293945259
20
41.124996185302727
42
-0.41421356237309509
0
LWPOLYLINE
5
126
100
AcDbEntity
8
0
100
AcDbPolyline
90
8
70
1
43
0.0
10
-145.90000762939454
20
21.574996185302737
10
-158.90000762939454
20
21.57499618530273
42
-0.41421356237309509
10
-159.40000762939454
20
22.074996185302737
10
-159.40000762939451
20
35.074996185302737
42
-0.41421356237309509
10
-158.90000762939454
20
35.57499618530273
10
-145.90000762939454
20
35.574996185302737
42
-0.41421356237309509
10
-145.40000762939454
20
35.074996185302737
10
-145.40000762939454
20
22.074996185302737
42
-0.41421356237309509
0
LWPOLYLINE
5
127
100
AcDbEntity
8
0
100
AcDbPolyline
90
8
70
1
43
0.0
10
-126.85000762939453
20
21.574996185302737
10
-139.85000762939453
20
21.57499618530273
42
-0.41421356237309509
10
-140.35000762939453
20
22.074996185302737
10
-140.3500076293945
20
35.074996185302737
42
-0.41421356237309509
10
-139.85000762939453
20
35.57499618530273
10
-126.85000762939453
20
35.574996185302737
42
-0.41421356237309509
10
-126.35000762939453
20
35.074996185302737
10
-126.35000762939453
20
22.074996185302737
42
-0.41421356237309509
0
LWPOLYLINE
5
128
100
AcDbEntity
8
0
100
AcDbPolyline
90
8
70
1
43
0.0
10
-164.95000762939455
20
21.574996185302737
10
-177.95000762939452
20
21.57499618530273
42
-0.41421356237309509
10
-178.45000762939452
20
22.074996185302737
10
-178.45000762939452
20
35.074996185302737
42
-0.41421356237309509
10
-177.95000762939452
20
35.57499618530273
10
-164.95000762939455
20
35.57499618530278
42
-0.41421356237309509
10
-164.45000762939452
20
35.074996185302737
10
-164.45000762939455
20
22.074996185302737
42
-0.41421356237309509
0
LWPOLYLINE
5
129
100
AcDbEntity
8
0
100
AcDbPolyline
90
8
70
1
43
0.0
10
-184.00000762939453
20
21.574996185302737
10
-197.00000762939453
20
21.57499618530273
42
-0.41421356237309509
10
-197.50000762939453
20
22.074996185302737
10
-197.50000762939453
20
35.074996185302737
42
-0.41421356237309509
10
-197.00000762939453
20
35.57499618530273
10
-184.00000762939453
20
35.574996185302737
42
-0.41421356237309509
10
-183.50000762939453
20
35.074996185302737
10
-183.50000762939453
20
22.074996185302737
42
-0.41421356237309509
0
LWPOLYLINE
5
130
100
AcDbEntity
8
0
100
AcDbPolyline
90
8
70
1
43
0.0
10
-203.05000762939449
20
21.574996185302737
10
-216.05000762939454
20
21.574996185302766
42
-0.41421356237309509
10
-216.55000762939451
20
22.074996185302737
10
-216.55000762939454
20
35.074996185302737
42
-0.41421356237309509
10
-216.05000762939454
20
35.57499618530273
10
-203.05000762939449
20
35.574996185302709
42
-0.41421356237309509
10
-202.55000762939454
20
35.074996185302737
10
-202.55000762939449
20
22.074996185302737
42
-0.41421356237309509
0
LWPOLYLINE
5
131
100
AcDbEntity
8
0
100
AcDbPolyline
90
8
70
1
43
0.0
10
-222.1000076293945
20
21.574996185302737
10
-235.10000762939453
20
21.57499618530273
42
-0.41421356237309509
10
-235.60000762939453
20
22.074996185302737
10
-235.60000762939453
20
35.074996185302737
42
-0.41421356237309509
10
-235.10000762939453
20
35.57499618530273
10
-222.1000076293945
20
35.574996185302709
42
-0.41421356237309509
10
-221.60000762939455
20
35.074996185302737
10
-221.6000076293945
20
22.074996185302737
42
-0.41421356237309509
0
LWPOLYLINE
5
132
100
AcDbEntity
8
0
100
AcDbPolyline
90
8
70
1
43
0.0
10
-69.700007629394491
20
21.574996185302737
10
-82.700007629394491
20
21.57499618530273
42
-0.41421356237309509
10
-83.200007629394506
20
22.074996185302737
10
-83.200007629394506
20
35.074996185302737
42
-0.41421356237309509
10
-82.700007629394491
20
35.57499618530273
10
-69.700007629394491
20
35.574996185302737
42
-0.41421356237309509
10
-69.200007629394491
20
35.074996185302737
10
-69.200007629394491
20
22.074996185302737
42
-0.41421356237309509
0
LWPOLYLINE
5
133
100
AcDbEntity
8
0
100
AcDbPolyline
90
8
70
1
43
0.0
10
-241.15000762939451
20
21.574996185302737
10
-254.15000762939454
20
21.57499618530273
42
-0.41421356237309509
10
-254.65000762939454
20
22.074996185302737
10
-254.65000762939454
20
35.074996185302737
42
-0.41421356237309509
10
-254.15000762939454
20
35.57499618530273
10
-241.15000762939451
20
35.574996185302737
42
-0.41421356237309509
10
-240.65000762939451
20
35.074996185302737
10
-240.65000762939451
20
22.074996185302737
42
-0.41421356237309509
0
LWPOLYLINE
5
134
100
AcDbEntity
8
0
100
AcDbPolyline
90
8
70
1
43
0.0
10
-88.750007629394503
20
21.574996185302737
42
0.41421356237309509
10
-88.250007629394503
20
22.074996185302737
10
-88.250007629394503
20
35.074996185302737
42
0.41421356237309509
10
-88.750007629394503
20
35.57499618530273
10
-101.7500076293945
20
35.57499618530273
42
0.41421356237309509
10
-102.25000762939452
20
35.074996185302737
10
-102.25000762939452
20
22.074996185302737
42
0.41421356237309509
10
-101.7500076293945
20
21.574996185302737
0
LWPOLYLINE
5
135
100
AcDbEntity
8
0
100
AcDbPolyline
90
8
70
1
43
0.0
10
-50.650007629394516
20
21.574996185302737
10
-63.650007629394523
20
21.57499618530273
42
-0.41421356237309509
10
-64.150007629394537
20
22.074996185302737
10
-64.150007629394523
20
35.074996185302737
42
-0.41421356237309509
10
-63.650007629394523
20
35.57499618530273
10
-50.650007629394516
20
35.574996185302737
42
-0.41421356237309509
10
-50.150007629394509
20
35.074996185302737
10
-50.150007629394516
20
22.074996185302737
42
-0.41421356237309509
0
LWPOLYLINE
5
136
100
AcDbEntity
8
0
100
AcDbPolyline
90
8
70
1
43
0.0
10
-107.80000762939454
20
21.574996185302737
10
-120.80000762939451
20
21.57499618530273
42
-0.41421356237309509
10
-121.30000762939453
20
22.074996185302737
10
-121.30000762939453
20
35.074996185302737
42
-0.41421356237309509
10
-120.80000762939451
20
35.57499618530273
10
-107.80000762939454
20
35.574996185302737
42
-0.41421356237309509
10
-107.30000762939454
20
35.074996185302737
10
-107.30000762939454
20
22.074996185302737
42
-0.41421356237309509
0
LWPOLYLINE
5
137
100
AcDbEntity
8
0
100
AcDbPolyline
90
8
70
1
43
0.0
10
-231.62500762939453
20
2.5249961853027436
10
-244.62500762939453
20
2.5249961853027258
42
-0.41421356237309509
10
-245.12500762939453
20
3.024996185302733
10
-245.12500762939453
20
16.02499618530274
42
-0.41421356237309509
10
-244.62500762939453
20
16.52499618530274
10
-231.62500762939453
20
16.524996185302747
42
-0.41421356237309509
10
-231.1250076293945
20
16.02499618530274
10
-231.12500762939453
20
3.024996185302733
42
-0.41421356237309509
0
LWPOLYLINE
5
138
100
AcDbEntity
8
0
100
AcDbPolyline
90
8
70
1
43
0.0
10
-7.7875076293945256
20
21.574996185302737
42
0.41421356237309509
10
-7.2875076293945185
20
22.074996185302737
10
-7.2875076293945185
20
35.074996185302737
42
0.41421356237309509
10
-7.7875076293945256
20
35.57499618530273
10
-20.787507629394533
20
35.57499618530273
42
0.41421356237309509
10
-21.28750762939454
20
35.074996185302737
10
-21.28750762939454
20
22.074996185302737
42
0.41421356237309509
10
-20.787507629394533
20
21.574996185302737
0
LWPOLYLINE
5
139
100
AcDbEntity
8
0
100
AcDbPolyline
90
8
70
1
43
0.0
10
-31.600007629394504
20
21.574996185302737
42
0.41421356237309509
10
-31.100007629394497
20
22.074996185302737
10
-31.100007629394497
20
35.074996185302737
42
0.41421356237309509
10
-31.600007629394504
20
35.57499618530273
10
-44.600007629394511
20
35.57499618530273
42
0.41421356237309509
10
-45.100007629394518
20
35.074996185302737
10
-45.100007629394518
20
22.074996185302737
42
0.41421356237309509
10
-44.600007629394511
20
21.574996185302737
0
LWPOLYLINE
5
140
100
AcDbEntity
8
0
100
AcDbPolyline
90
8
70
1
43
0.0
10
-226.07500762939452
20
3.024996185302733
10
-226.07500762939455
20
16.02499618530274
42
-0.41421356237309509
10
-225.57500762939455
20
16.52499618530274
10
-212.57500762939455
20
16.524996185302747
42
-0.41421356237309509
10
-212.07500762939452
20
16.02499618530274
10
-212.07500762939452
20
3.024996185302733
42
-0.41421356237309509
10
-212.57500762939455
20
2.5249961853027258
10
-225.57500762939455
20
2.5249961853027614
42
-0.41421356237309509
0
LWPOLYLINE
5
141
100
AcDbEntity
8
0
100
AcDbPolyline
90
8
70
1
43
0.0
10
-193.52500762939454
20
2.5249961853027436
10
-206.52500762939454
20
2.5249961853027258
42
-0.41421356237309509
10
-207.02500762939454
20
3.024996185302733
10
-207.02500762939454
20
16.02499618530274
42
-0.41421356237309509
10
-206.52500762939454
20
16.52499618530274
10
-193.52500762939454
20
16.524996185302747
42
-0.41421356237309509
10
-193.02500762939451
20
16.02499618530274
10
-193.02500762939451
20
3.024996185302733
42
-0.41421356237309509
0
LWPOLYLINE
5
142
100
AcDbEntity
8
0
100
AcDbPolyline
90
8
70
1
43
0.0
10
-174.47500762939453
20
2.5249961853027436
10
-187.47500762939453
20
2.5249961853027258
42
-0.41421356237309509
10
-187.97500762939453
20
3.024996185302733
10
-187.97500762939453
20
16.02499618530274
42
-0.41421356237309509
10
-187.47500762939453
20
16.52499618530274
10
-174.47500762939453
20
16.524996185302747
42
-0.41421356237309509
10
-173.9750076293945
20
16.02499618530274
10
-173.9750076293945
20
3.024996185302733
42
-0.41421356237309509
0
LWPOLYLINE
5
143
100
AcDbEntity
8
0
100
AcDbPolyline
90
8
70
1
43
0.0
10
-60.175007629394521
20
2.5249961853027258
42
0.41421356237309509
10
-59.675007629394514
20
3.024996185302733
10
-59.675007629394514
20
16.02499618530274
42
0.41421356237309509
10
-60.175007629394521
20
16.52499618530274
10
-73.175007629394528
20
16.52499618530274
42
0.41421356237309509
10
-73.675007629394543
20
16.02499618530274
10
-73.675007629394543
20
3.024996185302733
42
0.41421356237309509
10
-73.175007629394528
20
2.5249961853027436
0
LWPOLYLINE
5
144
100
AcDbEntity
8
0
100
AcDbPolyline
90
8
70
1
43
0.0
10
-117.32500762939452
20
2.5249961853027436
10
-130.32500762939452
20
2.5249961853027258
42
-0.41421356237309509
10
-130.82500762939452
20
3.024996185302733
10
-130.82500762939449
20
16.02499618530274
42
-0.41421356237309509
10
-130.32500762939452
20
16.52499618530274
10
-117.32500762939452
20
16.524996185302747
42
-0.41421356237309509
10
-116.82500762939452
20
16.02499618530274
10
-116.82500762939453
20
3.024996185302733
42
-0.41421356237309509
0
LWPOLYLINE
5
145
100
AcDbEntity
8
0
100
AcDbPolyline
90
8
70
1
43
0.0
10
-149.87500762939453
20
3.024996185302733
10
-149.8750076293945
20
16.02499618530274
42
-0.41421356237309509
10
-149.37500762939453
20
16.52499618530274
10
-136.37500762939453
20
16.524996185302747
42
-0.41421356237309509
10
-135.87500762939453
20
16.02499618530274
10
-135.87500762939453
20
3.024996185302733
42
-0.41421356237309509
10
-136.37500762939453
20
2.5249961853027258
10
-149.37500762939453
20
2.5249961853027258
42
-0.41421356237309509
0
LWPOLYLINE
5
146
100
AcDbEntity
8
0
100
AcDbPolyline
90
8
70
1
43
0.0
10
-41.12500762939451
20
2.5249961853027436
10
-54.125007629394517
20
2.5249961853027258
42
-0.41421356237309509
10
-54.625007629394524
20
3.024996185302733
10
-54.625007629394517
20
16.02499618530274
42
-0.41421356237309509
10
-54.125007629394517
20
16.52499618530274
10
-41.12500762939451
20
16.524996185302747
42
-0.41421356237309509
10
-40.625007629394503
20
16.02499618530274
10
-40.625007629394517
20
3.024996185302733
42
-0.41421356237309509
0
LWPOLYLINE
5
147
100
AcDbEntity
8
0
100
AcDbPolyline
90
8
70
1
43
0.0
10
-155.42500762939454
20
2.5249961853027436
10
-168.42500762939451
20
2.5249961853027258
42
-0.41421356237309509
10
-168.92500762939451
20
3.024996185302733
10
-168.92500762939451
20
16.02499618530274
42
-0.41421356237309509
10
-168.42500762939451
20
16.52499618530274
10
-155.42500762939454
20
16.524996185302747
42
-0.41421356237309509
10
-154.92500762939454
20
16.02499618530274
10
-154.92500762939454
20
3.024996185302733
42
-0.41421356237309509
0
LWPOLYLINE
5
148
100
AcDbEntity
8
0
100
AcDbPolyline
90
8
70
1
43
0.0
10
-111.77500762939452
20
3.024996185302733
10
-111.77500762939452
20
16.02499618530274
42
-0.41421356237309509
10
-111.27500762939451
20
16.52499618530274
10
-98.275007629394537
20
16.524996185302747
42
-0.41421356237309509
10
-97.775007629394537
20
16.02499618530274
10
-97.775007629394537
20
3.024996185302733
42
-0.41421356237309509
10
-98.275007629394537
20
2.5249961853027258
10
-111.27500762939451
20
2.5249961853027258
42
-0.41421356237309509
0
LWPOLYLINE
5
149
100
AcDbEntity
8
0
100
AcDbPolyline
90
8
70
1
43
0.0
10
-79.225007629394497
20
2.5249961853027436
10
-92.225007629394497
20
2.5249961853027258
42
-0.41421356237309509
10
-92.725007629394511
20
3.024996185302733
10
-92.725007629394511
20
16.02499618530274
42
-0.41421356237309509
10
-92.225007629394497
20
16.52499618530274
10
-79.225007629394497
20
16.524996185302747
42
-0.41421356237309509
10
-78.725007629394497
20
16.02499618530274
10
-78.725007629394511
20
3.024996185302733
42
-0.41421356237309509
0
LWPOLYLINE
5
150
100
AcDbEntity
8
0
100
AcDbPolyline
90
8
70
1
43
0.0
10
-22.075007629394499
20
2.5249961853027436
10
-35.075007629394506
20
2.5249961853027258
42
-0.41421356237309509
10
-35.575007629394513
20
3.024996185302733
10
-35.575007629394506
20
16.02499618530274
42
-0.41421356237309509
10
-35.075007629394506
20
16.52499618530274
10
-22.075007629394499
20
16.524996185302747
42
-0.41421356237309509
10
-21.575007629394491
20
16.02499618530274
10
-21.575007629394509
20
3.024996185302733
42
-0.41421356237309509
0
LWPOLYLINE
5
151
100
AcDbEntity
8
0
100
AcDbPolyline
90
8
70
1
43
0.0
10
-3.0250076293944872
20
2.5249961853027436
10
-16.025007629394494
20
2.5249961853027258
42
-0.41421356237309509
10
-16.525007629394501
20
3.024996185302733
10
-16.525007629394494
20
16.02499618530274
42
-0.41421356237309509
10
-16.025007629394494
20
16.52499618530274
10
-3.0250076293944872
20
16.524996185302747
42
-0.41421356237309509
10
-2.5250076293944801
20
16.02499618530274
10
-2.5250076293944979
20
3.024996185302733
42
-0.41421356237309509
0
LWPOLYLINE
5
152
100
AcDbEntity
8
0
100
AcDbPolyline
90
8
70
1
43
0.0
10
-217.33750762939454
20
78.724996185302729
10
-230.33750762939451
20
78.724996185302729
42
-0.41421356237309509
10
-230.83750762939451
20
79.224996185302729
10
-230.83750762939451
20
92.224996185302729
42
-0.41421356237309509
10
-230.33750762939451
20
92.724996185302743
10
-217.33750762939454
20
92.724996185302743
42
-0.41421356237309509
10
-216.83750762939454
20
92.224996185302729
10
-216.83750762939454
20
79.224996185302729
42
-0.41421356237309509
0
LWPOLYLINE
5
153
100
AcDbEntity
8
0
100
AcDbPolyline
90
8
70
1
43
0.0
10
-241.15000762939451
20
78.724996185302729
10
-254.15000762939454
20
78.724996185302729
42
-0.41421356237309509
10
-254.65000762939454
20
79.224996185302729
10
-254.65000762939454
20
92.224996185302729
42
-0.41421356237309509
10
-254.15000762939454
20
92.724996185302743
10
-241.15000762939451
20
92.724996185302743
42
-0.41421356237309509
10
-240.65000762939451
20
92.224996185302729
10
-240.65000762939451
20
79.224996185302729
42
-0.41421356237309509
0
LWPOLYLINE
5
154
100
AcDbEntity
8
0
100
AcDbPolyline
90
8
70
1
43
0.0
10
-264.96250762939451
20
78.724996185302729
42
0.41421356237309509
10
-264.46250762939451
20
79.224996185302729
10
-264.46250762939451
20
92.224996185302729
42
0.41421356237309509
10
-264.96250762939451
20
92.724996185302743
10
-277.96250762939457
20
92.724996185302743
42
0.41421356237309509
10
-278.46250762939457
20
92.224996185302729
10
-278.46250762939457
20
79.224996185302729
42
0.41421356237309509
10
-277.96250762939457
20
78.724996185302729
0
LWPOLYLINE
5
155
100
AcDbEntity
8
0
100
AcDbPolyline
90
20
70
1
43
0.0
10
-250.67500762939463
20
2.5249961853027436
10
-282.72500762939455
20
2.5249961853027258
42
-0.41421356237311585
10
-283.22500762939461
20
3.024996185302733
10
-283.22500762939461
20
16.02499618530274
42
-0.41421356237309509
10
-282.72500762939455
20
16.52499618530274
10
-282.13800762939456
20
16.52499618530274
10
-282.13800762939451
20
18.024996185302733
42
-0.41421356237309509
10
-281.63800762939451
20
18.524996185302733
10
-275.63800762939456
20
18.52499618530274
42
-0.41421356237309509
10
-275.13800762939456
20
18.024996185302733
10
-275.13800762939456
20
16.52499618530274
10
-258.26200762939465
20
16.52499618530274
10
-258.26200762939453
20
18.024996185302733
42
-0.41421356237309509
10
-257.76200762939453
20
18.524996185302733
10
-251.76200762939453
20
18.52499618530274
42
-0.41421356237309509
10
-251.2620076293945
20
18.024996185302733
10
-251.26200762939453
20
16.52499618530274
10
-250.67500762939463
20
16.524996185302747
42
-0.41421356237309509
10
-250.17500762939463
20
16.02499618530274
10
-250.17500762939463
20
3.024996185302733
42
-0.41421356237309509
0
LWPOLYLINE
5
156
100
AcDbEntity
8
0
100
AcDbPolyline
90
20
70
1
43
0.0
10
-5.4062576293945241
20
59.674996185302724
10
-40.181257629394516
20
59.674996185302724
42
-0.41421356237309509
10
-40.681257629394523
20
60.174996185302732
10
-40.681257629394523
20
73.174996185302746
42
-0.41421356237309509
10
-40.181257629394516
20
73.674996185302746
10
-36.869257629394525
20
73.674996185302732
10
-36.869257629394525
20
75.174996185302732
42
-0.41421356237309509
10
-36.369257629394518
20
75.674996185302746
10
-30.369257629394504
20
75.674996185302746
42
-0.41421356237309509
10
-29.869257629394497
20
75.174996185302732
10
-29.869257629394497
20
73.674996185302732
10
-12.993257629394499
20
73.674996185302732
10
-12.993257629394499
20
75.174996185302732
42
-0.41421356237309509
10
-12.493257629394492
20
75.674996185302746
10
-6.4932576293945132
20
75.674996185302746
42
-0.41421356237309509
10
-5.9932576293945061
20
75.174996185302732
10
-5.9932576293945061
20
73.674996185302732
10
-5.4062576293945241
20
73.674996185302746
42
-0.41421356237309509
10
-4.906257629394517
20
73.174996185302746
10
-4.906257629394517
20
60.174996185302732
42
-0.41421356237309509
0
LWPOLYLINE
5
157
100
AcDbEntity
8
0
100
AcDbPolyline
90
42
70
1
43
0.0
10
-279.75675762939454
20
53.319831243448434
10
-279.75675762939454
20
56.124996185302734
42
-0.41421356237309509
10
-279.25675762939454
20
56.624996185302727
10
-273.25675762939454
20
56.624996185302749
42
-0.41421356237309509
10
-272.75675762939454
20
56.124996185302734
10
-272.75675762939454
20
53.537996185302731
10
-271.31875762939461
20
53.537996185302731
10
-271.31875762939461
20
54.124996185302734
42
-0.41421356237309509
10
-270.81875762939461
20
54.624996185302734
10
-255.88075762939462
20
54.624996185302734
10
-255.88075762939454
20
56.124996185302734
42
-0.41421356237309509
10
-255.38075762939454
20
56.624996185302727
10
-249.38075762939462
20
56.624996185302749
42
-0.41421356237309509
10
-248.88075762939462
20
56.124996185302734
10
-248.88075762939462
20
54.624996185302734
10
-245.56875762939453
20
54.624996185302741
42
-0.41421356237309509
10
-245.0687576293945
20
54.124996185302734
10
-245.0687576293945
20
41.124996185302727
42
-0.41421356237309509
10
-245.56875762939453
20
40.624996185302734
10
-266.84375762939453
20
40.624996185302734
10
-266.84375762939453
20
35.57499618530273
10
-264.96250762939462
20
35.574996185302737
42
-0.41421356237309509
10
-264.46250762939462
20
35.074996185302737
10
-264.46250762939462
20
22.074996185302737
42
-0.41421356237309509
10
-264.96250762939462
20
21.574996185302737
10
-277.96250762939457
20
21.57499618530273
42
-0.41421356237309509
10
-278.46250762939457
20
22.074996185302737
10
-278.46250762939462
20
22.661996185302733
10
-279.34375762939459
20
22.661996185302726
42
-0.41421356237309509
10
-279.84375762939459
20
23.161996185302733
10
-279.84375762939459
20
29.161996185302741
42
-0.41421356237309509
10
-279.34375762939459
20
29.661996185302737
10
-278.46250762939462
20
29.661996185302737
10
-278.46250762939462
20
31.099996185302725
10
-280.34375762939453
20
31.099996185302725
42
-0.41421356237309509
10
-280.84375762939453
20
31.599996185302732
10
-280.84375762939453
20
44.599996185302729
42
-0.41421356237309509
10
-280.34375762939453
20
45.099996185302729
10
-279.7567576293946
20
45.099996185302729
10
-279.75675762939454
20
46.756161127157007
42
-0.1508340911417814
10
-279.84375762939459
20
47.037996185302724
10
-279.84375762939453
20
53.037996185302731
42
-0.1508340911417749
0
LWPOLYLINE
5
158
100
AcDbEntity
8
0
100
AcDbPolyline
90
20
70
1
43
0.0
10
-243.53150762939453
20
59.674996185302724
10
-282.72500762939455
20
59.674996185302724
42
-0.41421356237309509
10
-283.22500762939461
20
60.174996185302732
10
-283.22500762939455
20
73.174996185302746
42
-0.41421356237309509
10
-282.72500762939455
20
73.674996185302732
10
-274.9942576293945
20
73.674996185302732
10
-274.99425762939461
20
75.174996185302732
42
-0.41421356237309509
10
-274.49425762939461
20
75.674996185302746
10
-268.49425762939455
20
75.674996185302746
42
-0.41421356237309509
10
-267.99425762939455
20
75.174996185302732
10
-267.99425762939455
20
73.674996185302732
10
-251.11825762939452
20
73.674996185302732
10
-251.11825762939452
20
75.174996185302732
42
-0.41421356237309509
10
-250.61825762939452
20
75.674996185302746
10
-244.61825762939455
20
75.674996185302774
42
-0.41421356237309509
10
-244.11825762939452
20
75.174996185302732
10
-244.11825762939455
20
73.674996185302732
10
-243.53150762939453
20
73.674996185302746
42
-0.41421356237309509
10
-243.03150762939453
20
73.174996185302746
10
-243.03150762939453
20
60.174996185302732
42
-0.41421356237309509
0
LWPOLYLINE
5
159
100
AcDbEntity
8
0
100
AcDbPolyline
90
8
70
1
43
0.0
10
-149.87500762939453
20
79.224996185302729
42
0.41421356237309509
10
-149.37500762939453
20
78.724996185302729
10
-136.37500762939453
20
78.724996185302729
42
0.41421356237309509
10
-135.87500762939453
20
79.224996185302729
10
-135.87500762939453
20
92.224996185302729
42
0.41421356237309509
10
-136.37500762939453
20
92.724996185302743
10
-149.37500762939453
20
92.724996185302743
42
0.41421356237309509
10
-149.87500762939453
20
92.224996185302729
0
LWPOLYLINE
5
160
100
AcDbEntity
8
0
100
AcDbPolyline
90
8
70
1
43
0.0
10
-82.225007629394497
20
92.224996185302729
10
-82.22500762939454
20
79.224996185302729
42
-0.41421356237315227
10
-82.725007629394511
20
78.724996185302672
10
-88.725007629394526
20
78.724996185302672
42
-0.41421356237315227
10
-89.225007629394497
20
79.224996185302729
10
-89.225007629394526
20
92.224996185302729
42
-0.41421356237309509
10
-88.725007629394526
20
92.724996185302743
10
-82.725007629394511
20
92.724996185302743
42
-0.41421356237309509
0
LWPOLYLINE
5
161
100
AcDbEntity
8
0
100
AcDbPolyline
90
8
70
1
43
0.0
10
-203.52500762939442
20
79.224996185302729
10
-203.52500762939454
20
92.224996185302757
42
-0.41421356237309509
10
-203.02500762939451
20
92.724996185302757
10
-197.02500762939451
20
92.724996185302729
42
-0.41421356237309509
10
-196.52500762939454
20
92.224996185302757
10
-196.52500762939437
20
79.224996185302729
42
-0.41421356237321466
10
-197.02500762939445
20
78.724996185302672
10
-203.02500762939445
20
78.724996185302672
42
-0.41421356237315227
0
CIRCLE
5
162
100
AcDbEntity
8
0
100
AcDbCircle
10
-266.70017922242664
20
-3.225003814697267
30
1.3877787807814457e-15
40
1.25
210
-6.3256783837409862e-29
220
5.3437827712781358e-24
230
1
0
CIRCLE
5
163
100
AcDbEntity
8
0
100
AcDbCircle
10
-142.87117922242652
20
98.4749961853028
30
1.6653345369377348e-15
40
1.25
210
-6.3256783837409862e-29
220
5.3437827712781358e-24
230
1
0
CIRCLE
5
164
100
AcDbEntity
8
0
100
AcDbCircle
10
-19.042179222426512
20
98.474996185302771
30
6.9388939039072284e-15
40
1.25
210
-6.3256783837409862e-29
220
5.3437827712781358e-24
230
1
0
CIRCLE
5
165
100
AcDbEntity
8
0
100
AcDbCircle
10
-142.87117922242652
20
-3.225003814697267
30
6.6613381477509392e-15
40
1.25
210
-6.3256783837409862e-29
220
5.3437827712781358e-24
230
1
0
CIRCLE
5
166
100
AcDbEntity
8
0
100
AcDbCircle
10
-266.70017922242664
20
98.474996185302814
30
6.3837823915946501e-15
40
1.25
210
-6.3256783837409862e-29
220
5.3437827712781358e-24
230
1
0
CIRCLE
5
167
100
AcDbEntity
8
0
100
AcDbCircle
10
-19.042179222426512
20
-3.2250038146973736
30
1.9428902930940239e-15
40
1.25
210
-6.3256783837409862e-29
220
5.3437827712781358e-24
230
1
0
ENDSEC
0
SECTION
2
OBJECTS
0
DICTIONARY
5
C
100
AcDbDictionary
3
ACAD_GROUP
350
D
3
ACAD_MLINESTYLE
350
17
0
DICTIONARY
5
D
100
AcDbDictionary
0
DICTIONARY
5
1A
330
C
100
AcDbDictionary
0
DICTIONARY
5
17
100
AcDbDictionary
0
ENDSEC
0
EOF
