0
SECTION
2
HEADER
9
$INSUNITS
70
4
9
$ACADVER
1
AC1014
9
$HANDSEED
5
FFFF
0
ENDSEC
0
SECTION
2
TABLES
0
TABLE
2
VPORT
5
8
100
AcDbSymbolTable
0
ENDTAB
0
TABLE
2
LTYPE
5
5
100
AcDbSymbolTable
0
LTYPE
5
14
100
AcDbSymbolTableRecord
100
AcDbLinetypeTableRecord
2
BYBLOCK
70
0
0
LTYPE
5
15
100
AcDbSymbolTableRecord
100
AcDbLinetypeTableRecord
2
BYLAYER
70
0
0
ENDTAB
0
TABLE
2
LAYER
5
2
100
AcDbSymbolTable
70
2
0
LAYER
5
50
100
AcDbSymbolTableRecord
100
AcDbLayerTableRecord
2
0
70
0
6
CONTINUOUS
0
ENDTAB
0
TABLE
2
STYLE
5
3
100
AcDbSymbolTable
70
1
0
STYLE
5
11
100
AcDbSymbolTableRecord
100
AcDbTextStyleTableRecord
2
STANDARD
70
0
0
ENDTAB
0
TABLE
2
VIEW
5
6
100
AcDbSymbolTable
70
0
0
ENDTAB
0
TABLE
2
UCS
5
7
100
AcDbSymbolTable
70
0
0
ENDTAB
0
TABLE
2
APPID
5
9
100
AcDbSymbolTable
70
2
0
APPID
5
12
100
AcDbSymbolTableRecord
100
AcDbRegAppTableRecord
2
ACAD
70
0
0
ENDTAB
0
TABLE
2
DIMSTYLE
5
A
100
AcDbSymbolTable
70
1
0
ENDTAB
0
TABLE
2
BLOCK_RECORD
5
1
100
AcDbSymbolTable
70
1
0
BLOCK_RECORD
5
1F
100
AcDbSymbolTableRecord
100
AcDbBlockTableRecord
2
*MODEL_SPACE
0
BLOCK_RECORD
5
1B
100
AcDbSymbolTableRecord
100
AcDbBlockTableRecord
2
*PAPER_SPACE
0
ENDTAB
0
ENDSEC
0
SECTION
2
BLOCKS
0
BLOCK
5
20
100
AcDbEntity
100
AcDbBlockBegin
2
*MODEL_SPACE
0
ENDBLK
5
21
100
AcDbEntity
100
AcDbBlockEnd
0
BLOCK
5
1C
100
AcDbEntity
100
AcDbBlockBegin
2
*PAPER_SPACE
0
ENDBLK
5
1D
100
AcDbEntity
100
AcDbBlockEnd
0
ENDSEC
0
SECTION
2
ENTITIES
0
LWPOLYLINE
5
100
100
AcDbEntity
8
0
100
AcDbPolyline
90
12
70
1
43
0.0
10
-178.96278495287675
20
16.171225796452326
42
0.57884312515180336
10
-179.13554073305644
20
16.472000001557145
10
-190.97899999989892
20
16.472000001557163
42
0.41421356237309637
10
-191.47899999989892
20
15.972000001557154
10
-191.47899999989889
20
2.972000001557118
42
0.4142135623730977
10
-190.97899999989892
20
2.4720000015571424
10
-171.99445039055476
20
2.4720000015571482
42
0.76555078539439081
10
-171.89367618544995
20
2.8447557817368074
10
-180.73109717856752
20
7.999918027722269
42
-0.26675029845520792
10
-181.22722615304343
20
8.8636969286206924
10
-181.22722615304343
20
12.018977454816593
42
-0.13279097749282054
10
-181.0910050539419
20
12.522848480340677
0
LWPOLYLINE
5
101
100
AcDbEntity
8
0
100
AcDbPolyline
90
8
70
1
43
0.0
10
-216.84149999989896
20
15.972000001557149
42
0.4142135623730937
10
-217.34149999989896
20
16.472000001557145
10
-230.34149999989893
20
16.472000001557142
42
0.41421356237309509
10
-230.84149999989893
20
15.972000001557145
10
-230.84149999989893
20
2.9720000015571313
42
0.41421356237309509
10
-230.34149999989893
20
2.4720000015571246
10
-217.34149999989896
20
2.4720000015571268
42
0.41421356237309409
10
-216.84149999989896
20
2.9720000015571313
0
LWPOLYLINE
5
102
100
AcDbEntity
8
0
100
AcDbPolyline
90
8
70
1
43
0.0
10
-240.65399999989893
20
15.972000001557145
42
0.41421356237309509
10
-241.15399999989893
20
16.472000001557142
10
-254.15399999989893
20
16.472000001557142
42
0.41421356237309509
10
-254.65399999989896
20
15.972000001557143
10
-254.65399999989896
20
2.9720000015571264
42
0.41421356237309437
10
-254.15399999989893
20
2.4720000015571193
10
-241.15399999989893
20
2.4720000015571229
42
0.41421356237309409
10
-240.65399999989896
20
2.9720000015571291
0
LWPOLYLINE
5
103
100
AcDbEntity
8
0
100
AcDbPolyline
90
8
70
1
43
0.0
10
-264.46649999989893
20
15.972000001557142
42
0.41421356237309509
10
-264.96649999989893
20
16.472000001557138
10
-277.96649999989893
20
16.472000001557138
42
0.41421356237309509
10
-278.46649999989893
20
15.972000001557138
10
-278.46649999989899
20
2.9720000015571229
42
0.4142135623730947
10
-277.96649999989893
20
2.4720000015571162
10
-264.96649999989893
20
2.4720000015571189
42
0.41421356237309409
10
-264.46649999989893
20
2.9720000015571246
0
LWPOLYLINE
5
104
100
AcDbEntity
8
0
100
AcDbPolyline
90
8
70
1
43
0.0
10
-87.466499999898957
20
35.522000001557153
10
-74.466499999898957
20
35.52200000155716
42
-0.41421356237308982
10
-73.966499999898957
20
35.02200000155716
10
-73.966499999898957
20
22.022000001557167
42
-0.41421356237308982
10
-74.466499999898943
20
21.522000001557167
10
-87.466499999898957
20
21.52200000155716
42
-0.41421356237309509
10
-87.966499999898957
20
22.022000001557167
10
-87.966499999898957
20
35.02200000155716
42
-0.41421356237309509
0
LWPOLYLINE
5
105
100
AcDbEntity
8
0
100
AcDbPolyline
90
8
70
1
43
0.0
10
-68.416499999898946
20
35.522000001557153
10
-55.416499999898939
20
35.522000001557167
42
-0.41421356237308982
10
-54.916499999898946
20
35.02200000155716
10
-54.916499999898946
20
22.022000001557171
42
-0.41421356237308982
10
-55.416499999898932
20
21.522000001557174
10
-68.416499999898946
20
21.52200000155716
42
-0.4142135623731002
10
-68.91649999989896
20
22.022000001557167
10
-68.91649999989896
20
35.02200000155716
42
-0.4142135623731002
0
LWPOLYLINE
5
106
100
AcDbEntity
8
0
100
AcDbPolyline
90
8
70
1
43
0.0
10
-106.51649999989893
20
35.522000001557153
10
-93.516499999898912
20
35.52200000155716
42
-0.41421356237309509
10
-93.016499999898912
20
35.022000001557153
10
-93.016499999898912
20
22.022000001557164
42
-0.41421356237309509
10
-93.516499999898912
20
21.522000001557164
10
-106.51649999989893
20
21.522000001557156
42
-0.41421356237309509
10
-107.01649999989894
20
22.022000001557164
10
-107.01649999989894
20
35.022000001557153
42
-0.41421356237309509
0
LWPOLYLINE
5
107
100
AcDbEntity
8
0
100
AcDbPolyline
90
8
70
1
43
0.0
10
-125.56649999989894
20
35.522000001557153
10
-112.56649999989892
20
35.52200000155716
42
-0.41421356237309509
10
-112.06649999989892
20
35.022000001557153
10
-112.06649999989892
20
22.022000001557164
42
-0.41421356237309509
10
-112.56649999989892
20
21.522000001557164
10
-125.56649999989894
20
21.522000001557153
42
-0.4142135623730977
10
-126.06649999989895
20
22.022000001557164
10
-126.06649999989895
20
35.022000001557153
42
-0.41421356237309243
0
LWPOLYLINE
5
108
100
AcDbEntity
8
0
100
AcDbPolyline
90
8
70
1
43
0.0
10
-220.81649999989895
20
35.522000001557132
42
0.41421356237309509
10
-221.31649999989895
20
35.022000001557132
10
-221.31649999989895
20
22.022000001557146
42
0.41421356237309509
10
-220.81649999989895
20
21.522000001557146
10
-207.81649999989895
20
21.522000001557146
42
0.41421356237309509
10
-207.31649999989895
20
22.022000001557146
10
-207.31649999989895
20
35.022000001557132
42
0.41421356237309509
10
-207.81649999989895
20
35.522000001557132
0
LWPOLYLINE
5
109
100
AcDbEntity
8
0
100
AcDbPolyline
90
8
70
1
43
0.0
10
-182.71649999989893
20
35.522000001557139
42
0.41421356237309243
10
-183.21649999989893
20
35.022000001557146
10
-183.21649999989893
20
22.022000001557153
42
0.4142135623730977
10
-182.71649999989893
20
21.522000001557146
10
-169.71649999989896
20
21.522000001557156
42
0.4142135623730977
10
-169.21649999989896
20
22.02200000155716
10
-169.21649999989896
20
35.022000001557146
42
0.41421356237309243
10
-169.71649999989896
20
35.522000001557146
0
LWPOLYLINE
5
110
100
AcDbEntity
8
0
100
AcDbPolyline
90
8
70
1
43
0.0
10
-163.66649999989892
20
35.522000001557146
10
-150.66649999989895
20
35.522000001557153
42
-0.41421356237309243
10
-150.16649999989892
20
35.022000001557146
10
-150.16649999989895
20
22.02200000155716
42
-0.4142135623730977
10
-150.66649999989895
20
21.522000001557156
10
-163.66649999989892
20
21.522000001557146
42
-0.4142135623730977
10
-164.16649999989892
20
22.02200000155716
10
-164.16649999989892
20
35.022000001557146
42
-0.41421356237309243
0
LWPOLYLINE
5
111
100
AcDbEntity
8
0
100
AcDbPolyline
90
8
70
1
43
0.0
10
-201.76649999989894
20
35.522000001557132
42
0.41421356237309509
10
-202.26649999989894
20
35.022000001557132
10
-202.26649999989894
20
22.022000001557146
42
0.41421356237309509
10
-201.76649999989894
20
21.522000001557139
10
-188.76649999989894
20
21.522000001557153
42
0.4142135623730977
10
-188.26649999989894
20
22.022000001557153
10
-188.26649999989894
20
35.022000001557146
42
0.41421356237309243
10
-188.76649999989894
20
35.522000001557139
0
LWPOLYLINE
5
112
100
AcDbEntity
8
0
100
AcDbPolyline
90
8
70
1
43
0.0
10
-239.86649999989893
20
35.522000001557132
10
-226.86649999989893
20
35.522000001557139
42
-0.41421356237309509
10
-226.36649999989891
20
35.022000001557132
10
-226.36649999989891
20
22.022000001557139
42
-0.41421356237309509
10
-226.86649999989893
20
21.522000001557142
10
-239.86649999989893
20
21.522000001557132
42
-0.41421356237309509
10
-240.36649999989893
20
22.022000001557139
10
-240.36649999989893
20
35.022000001557132
42
-0.41421356237309509
0
LWPOLYLINE
5
113
100
AcDbEntity
8
0
100
AcDbPolyline
90
8
70
1
43
0.0
10
-144.61649999989896
20
35.522000001557146
10
-131.61649999989893
20
35.522000001557153
42
-0.41421356237309243
10
-131.11649999989893
20
35.022000001557153
10
-131.11649999989893
20
22.022000001557164
42
-0.4142135623730977
10
-131.61649999989893
20
21.52200000155716
10
-144.61649999989896
20
21.522000001557146
42
-0.4142135623730977
10
-145.11649999989896
20
22.02200000155716
10
-145.11649999989896
20
35.022000001557146
42
-0.41421356237309243
0
LWPOLYLINE
5
114
100
AcDbEntity
8
0
100
AcDbPolyline
90
8
70
1
43
0.0
10
-116.04149999989895
20
54.572000001557157
10
-103.04149999989895
20
54.572000001557164
42
-0.41421356237309509
10
-102.54149999989893
20
54.072000001557157
10
-102.54149999989892
20
41.07200000155715
42
-0.41421356237309509
10
-103.04149999989892
20
40.572000001557157
10
-116.04149999989893
20
40.572000001557143
42
-0.41421356237309509
10
-116.54149999989895
20
41.07200000155715
10
-116.54149999989895
20
54.072000001557157
42
-0.41421356237309509
0
LWPOLYLINE
5
115
100
AcDbEntity
8
0
100
AcDbPolyline
90
8
70
1
43
0.0
10
-58.89149999989894
20
54.572000001557164
10
-45.891499999898933
20
54.572000001557171
42
-0.41421356237308982
10
-45.39149999989894
20
54.072000001557171
10
-45.391499999898947
20
41.072000001557157
42
-0.41421356237308982
10
-45.891499999898933
20
40.572000001557164
10
-58.89149999989894
20
40.572000001557157
42
-0.4142135623731002
10
-59.391499999898954
20
41.072000001557157
10
-59.391499999898947
20
54.072000001557171
42
-0.4142135623731002
0
LWPOLYLINE
5
116
100
AcDbEntity
8
0
100
AcDbPolyline
90
8
70
1
43
0.0
10
-83.491499999898963
20
54.072000001557157
10
-83.491499999898934
20
41.07200000155715
42
-0.41421356237309509
10
-83.991499999898949
20
40.572000001557157
10
-96.991499999898963
20
40.572000001557143
42
-0.41421356237309509
10
-97.491499999898963
20
41.07200000155715
10
-97.491499999898963
20
54.072000001557157
42
-0.41421356237309509
10
-96.991499999898977
20
54.572000001557157
10
-83.991499999898963
20
54.572000001557164
42
-0.41421356237309509
0
LWPOLYLINE
5
117
100
AcDbEntity
8
0
100
AcDbPolyline
90
8
70
1
43
0.0
10
-135.09149999989896
20
54.57200000155715
10
-122.09149999989896
20
54.572000001557164
42
-0.41421356237309509
10
-121.59149999989894
20
54.072000001557157
10
-121.59149999989893
20
41.07200000155715
42
-0.41421356237309509
10
-122.09149999989893
20
40.572000001557157
10
-135.09149999989893
20
40.572000001557136
42
-0.41421356237309509
10
-135.59149999989896
20
41.072000001557143
10
-135.59149999989896
20
54.07200000155715
42
-0.41421356237309509
0
LWPOLYLINE
5
118
100
AcDbEntity
8
0
100
AcDbPolyline
90
8
70
1
43
0.0
10
-77.941499999898952
20
54.572000001557157
10
-64.941499999898952
20
54.572000001557171
42
-0.41421356237308982
10
-64.441499999898952
20
54.072000001557171
10
-64.441499999898952
20
41.072000001557157
42
-0.41421356237308982
10
-64.941499999898952
20
40.572000001557164
10
-77.941499999898952
20
40.572000001557143
42
-0.4142135623731002
10
-78.441499999898966
20
41.07200000155715
10
-78.441499999898966
20
54.072000001557157
42
-0.4142135623731002
0
LWPOLYLINE
5
119
100
AcDbEntity
8
0
100
AcDbPolyline
90
8
70
1
43
0.0
10
-154.14149999989894
20
54.57200000155715
10
-141.14149999989894
20
54.572000001557157
42
-0.41421356237309509
10
-140.64149999989894
20
54.07200000155715
10
-140.64149999989894
20
41.072000001557143
42
-0.41421356237309509
10
-141.14149999989894
20
40.572000001557143
10
-154.14149999989891
20
40.572000001557136
42
-0.41421356237309509
10
-154.64149999989894
20
41.072000001557143
10
-154.64149999989894
20
54.07200000155715
42
-0.41421356237309509
0
LWPOLYLINE
5
120
100
AcDbEntity
8
0
100
AcDbPolyline
90
8
70
1
43
0.0
10
-173.19149999989892
20
54.57200000155715
10
-160.19149999989895
20
54.572000001557143
42
-0.41421356237309509
10
-159.69149999989898
20
54.07200000155715
10
-159.69149999989895
20
41.072000001557143
42
-0.41421356237309509
10
-160.19149999989895
20
40.572000001557143
10
-173.19149999989892
20
40.572000001557136
42
-0.41421356237309509
10
-173.69149999989895
20
41.072000001557143
10
-173.69149999989895
20
54.07200000155715
42
-0.41421356237309509
0
LWPOLYLINE
5
121
100
AcDbEntity
8
0
100
AcDbPolyline
90
8
70
1
43
0.0
10
-192.24149999989893
20
54.572000001557143
10
-179.24149999989893
20
54.572000001557157
42
-0.41421356237309509
10
-178.74149999989893
20
54.07200000155715
10
-178.74149999989893
20
41.072000001557143
42
-0.41421356237309509
10
-179.24149999989893
20
40.572000001557143
10
-192.24149999989893
20
40.572000001557129
42
-0.41421356237309509
10
-192.74149999989896
20
41.072000001557136
10
-192.74149999989896
20
54.072000001557143
42
-0.41421356237309509
0
LWPOLYLINE
5
122
100
AcDbEntity
8
0
100
AcDbPolyline
90
8
70
1
43
0.0
10
-211.29149999989895
20
54.572000001557143
10
-198.29149999989892
20
54.57200000155715
42
-0.41421356237309509
10
-197.79149999989892
20
54.072000001557143
10
-197.79149999989892
20
41.072000001557136
42
-0.41421356237309509
10
-198.29149999989892
20
40.572000001557136
10
-211.29149999989895
20
40.572000001557129
42
-0.41421356237309509
10
-211.79149999989897
20
41.072000001557136
10
-211.79149999989897
20
54.072000001557143
42
-0.41421356237309509
0
LWPOLYLINE
5
123
100
AcDbEntity
8
0
100
AcDbPolyline
90
8
70
1
43
0.0
10
-230.34149999989893
20
54.572000001557143
42
0.41421356237309509
10
-230.84149999989893
20
54.072000001557143
10
-230.84149999989893
20
41.072000001557136
42
0.41421356237309509
10
-230.34149999989893
20
40.572000001557136
10
-217.34149999989896
20
40.572000001557136
42
0.41421356237309509
10
-216.84149999989896
20
41.072000001557136
10
-216.84149999989896
20
54.072000001557143
42
0.41421356237309509
10
-217.34149999989896
20
54.572000001557143
0
LWPOLYLINE
5
124
100
AcDbEntity
8
0
100
AcDbPolyline
90
8
70
1
43
0.0
10
-249.39149999989894
20
54.572000001557129
10
-236.39149999989894
20
54.57200000155715
42
-0.41421356237309509
10
-235.89149999989894
20
54.072000001557143
10
-235.89149999989894
20
41.072000001557136
42
-0.41421356237309509
10
-236.39149999989894
20
40.572000001557136
10
-249.39149999989894
20
40.572000001557115
42
-0.41421356237309509
10
-249.89149999989894
20
41.072000001557129
10
-249.89149999989894
20
54.072000001557129
42
-0.41421356237309509
0
LWPOLYLINE
5
125
100
AcDbEntity
8
0
100
AcDbPolyline
90
8
70
1
43
0.0
10
-280.34774999989895
20
54.572000001557129
10
-262.58524999989896
20
54.572000001557143
42
-0.41421356237309509
10
-262.08524999989896
20
54.072000001557129
10
-262.08524999989896
20
41.072000001557129
42
-0.41421356237309509
10
-262.58524999989896
20
40.572000001557129
10
-280.34774999989895
20
40.572000001557115
42
-0.41421356237309509
10
-280.84774999989895
20
41.072000001557129
10
-280.84774999989895
20
54.072000001557129
42
-0.41421356237309509
0
LWPOLYLINE
5
126
100
AcDbEntity
8
0
100
AcDbPolyline
90
8
70
1
43
0.0
10
-139.85399999989895
20
73.62200000155714
10
-126.85399999989896
20
73.622000001557169
42
-0.41421356237309509
10
-126.35399999989895
20
73.122000001557154
10
-126.35399999989897
20
60.122000001557154
42
-0.41421356237309509
10
-126.85399999989896
20
59.622000001557154
10
-139.85399999989895
20
59.62200000155714
42
-0.41421356237309509
10
-140.35399999989895
20
60.122000001557147
10
-140.35399999989895
20
73.122000001557154
42
-0.41421356237309509
0
LWPOLYLINE
5
127
100
AcDbEntity
8
0
100
AcDbPolyline
90
8
70
1
43
0.0
10
-158.90399999989896
20
73.62200000155714
10
-145.90399999989896
20
73.622000001557154
42
-0.41421356237309509
10
-145.40399999989896
20
73.122000001557154
10
-145.40399999989899
20
60.122000001557147
42
-0.41421356237309509
10
-145.90399999989896
20
59.622000001557147
10
-158.90399999989896
20
59.62200000155714
42
-0.41421356237309509
10
-159.40399999989896
20
60.122000001557147
10
-159.40399999989896
20
73.122000001557154
42
-0.41421356237309509
0
LWPOLYLINE
5
128
100
AcDbEntity
8
0
100
AcDbPolyline
90
8
70
1
43
0.0
10
-120.80399999989895
20
73.622000001557154
10
-107.80399999989898
20
73.622000001557169
42
-0.41421356237309509
10
-107.30399999989898
20
73.122000001557154
10
-107.30399999989899
20
60.122000001557154
42
-0.41421356237309509
10
-107.80399999989898
20
59.622000001557154
10
-120.80399999989895
20
59.622000001557147
42
-0.41421356237309509
10
-121.30399999989896
20
60.122000001557154
10
-121.30399999989893
20
73.122000001557154
42
-0.41421356237309509
0
LWPOLYLINE
5
129
100
AcDbEntity
8
0
100
AcDbPolyline
90
8
70
1
43
0.0
10
-101.75399999989894
20
73.622000001557154
10
-88.753999999898937
20
73.622000001557169
42
-0.41421356237309509
10
-88.253999999898923
20
73.122000001557154
10
-88.253999999898952
20
60.122000001557154
42
-0.41421356237309509
10
-88.753999999898937
20
59.622000001557154
10
-101.75399999989894
20
59.622000001557147
42
-0.41421356237309509
10
-102.25399999989895
20
60.122000001557154
10
-102.25399999989892
20
73.122000001557154
42
-0.41421356237309509
0
LWPOLYLINE
5
130
100
AcDbEntity
8
0
100
AcDbPolyline
90
8
70
1
43
0.0
10
-82.703999999898926
20
73.622000001557154
10
-69.703999999898912
20
73.622000001557183
42
-0.41421356237308982
10
-69.203999999898912
20
73.122000001557169
10
-69.203999999898926
20
60.122000001557161
42
-0.41421356237308982
10
-69.703999999898912
20
59.622000001557169
10
-82.703999999898926
20
59.622000001557147
42
-0.41421356237309509
10
-83.20399999989894
20
60.122000001557154
10
-83.203999999898912
20
73.122000001557154
42
-0.41421356237309509
0
LWPOLYLINE
5
131
100
AcDbEntity
8
0
100
AcDbPolyline
90
8
70
1
43
0.0
10
-63.653999999898943
20
73.622000001557154
10
-50.653999999898936
20
73.622000001557183
42
-0.41421356237308982
10
-50.153999999898943
20
73.122000001557169
10
-50.15399999989895
20
60.122000001557161
42
-0.41421356237308982
10
-50.653999999898936
20
59.622000001557169
10
-63.653999999898943
20
59.622000001557154
42
-0.4142135623731002
10
-64.153999999898957
20
60.122000001557161
10
-64.153999999898943
20
73.122000001557169
42
-0.4142135623731002
0
LWPOLYLINE
5
132
100
AcDbEntity
8
0
100
AcDbPolyline
90
8
70
1
43
0.0
10
-216.05399999989896
20
73.622000001557126
10
-203.05399999989891
20
73.622000001557154
42
-0.41421356237309509
10
-202.55399999989891
20
73.12200000155714
10
-202.55399999989891
20
60.12200000155714
42
-0.41421356237309509
10
-203.05399999989891
20
59.62200000155714
10
-216.05399999989896
20
59.622000001557126
42
-0.41421356237309509
10
-216.55399999989896
20
60.12200000155714
10
-216.55399999989896
20
73.12200000155714
42
-0.41421356237309509
0
LWPOLYLINE
5
133
100
AcDbEntity
8
0
100
AcDbPolyline
90
8
70
1
43
0.0
10
-44.603999999898932
20
73.622000001557154
10
-31.603999999898925
20
73.622000001557183
42
-0.41421356237308726
10
-31.103999999898932
20
73.122000001557169
10
-31.103999999898939
20
60.122000001557169
42
-0.41421356237308726
10
-31.603999999898921
20
59.622000001557169
10
-44.603999999898932
20
59.622000001557154
42
-0.4142135623731002
10
-45.103999999898946
20
60.122000001557161
10
-45.103999999898932
20
73.122000001557169
42
-0.4142135623731002
0
LWPOLYLINE
5
134
100
AcDbEntity
8
0
100
AcDbPolyline
90
8
70
1
43
0.0
10
-197.00399999989895
20
73.62200000155714
42
0.41421356237309509
10
-197.50399999989895
20
73.12200000155714
10
-197.50399999989895
20
60.12200000155714
42
0.41421356237309509
10
-197.00399999989895
20
59.62200000155714
10
-184.00399999989895
20
59.62200000155714
42
0.4142135623731002
10
-183.50399999989892
20
60.122000001557147
10
-183.50399999989892
20
73.122000001557154
42
0.41421356237308982
10
-184.00399999989895
20
73.622000001557126
0
LWPOLYLINE
5
135
100
AcDbEntity
8
0
100
AcDbPolyline
90
8
70
1
43
0.0
10
-235.10399999989892
20
73.622000001557126
10
-222.10399999989892
20
73.622000001557154
42
-0.41421356237309509
10
-221.60399999989892
20
73.12200000155714
10
-221.60399999989892
20
60.12200000155714
42
-0.41421356237309509
10
-222.10399999989892
20
59.62200000155714
10
-235.10399999989892
20
59.622000001557126
42
-0.41421356237309509
10
-235.60399999989895
20
60.12200000155714
10
-235.60399999989892
20
73.12200000155714
42
-0.41421356237309509
0
LWPOLYLINE
5
136
100
AcDbEntity
8
0
100
AcDbPolyline
90
8
70
1
43
0.0
10
-177.95399999989894
20
73.62200000155714
10
-164.95399999989897
20
73.622000001557154
42
-0.41421356237309509
10
-164.45399999989894
20
73.122000001557154
10
-164.45399999989894
20
60.122000001557147
42
-0.41421356237309509
10
-164.95399999989897
20
59.622000001557147
10
-177.95399999989894
20
59.62200000155714
42
-0.41421356237309509
10
-178.45399999989894
20
60.122000001557147
10
-178.45399999989894
20
73.122000001557154
42
-0.41421356237309509
0
LWPOLYLINE
5
137
100
AcDbEntity
8
0
100
AcDbPolyline
90
8
70
1
43
0.0
10
-54.128999999898959
20
92.672000001557166
10
-41.12899999989893
20
92.67200000155718
42
-0.41421356237308465
10
-40.628999999898944
20
92.172000001557166
10
-40.628999999898944
20
79.17200000155718
42
-0.41421356237309509
10
-41.12899999989893
20
78.67200000155718
10
-54.128999999898937
20
78.672000001557166
42
-0.41421356237310542
10
-54.628999999898952
20
79.17200000155718
10
-54.628999999898966
20
92.172000001557151
42
-0.41421356237309509
0
LWPOLYLINE
5
138
100
AcDbEntity
8
0
100
AcDbPolyline
90
8
70
1
43
0.0
10
-277.96649999989893
20
73.622000001557126
42
0.41421356237309509
10
-278.46649999989899
20
73.12200000155714
10
-278.46649999989899
20
60.122000001557126
42
0.41421356237309509
10
-277.96649999989893
20
59.622000001557126
10
-264.96649999989893
20
59.622000001557126
42
0.41421356237309509
10
-264.46649999989893
20
60.122000001557126
10
-264.46649999989893
20
73.12200000155714
42
0.41421356237309509
10
-264.96649999989893
20
73.622000001557126
0
LWPOLYLINE
5
139
100
AcDbEntity
8
0
100
AcDbPolyline
90
8
70
1
43
0.0
10
-254.15399999989893
20
73.622000001557126
42
0.41421356237309509
10
-254.65399999989896
20
73.12200000155714
10
-254.65399999989896
20
60.122000001557126
42
0.41421356237309509
10
-254.15399999989893
20
59.622000001557126
10
-241.15399999989893
20
59.622000001557126
42
0.41421356237309509
10
-240.65399999989896
20
60.122000001557126
10
-240.65399999989893
20
73.12200000155714
42
0.41421356237309509
10
-241.15399999989893
20
73.622000001557126
0
LWPOLYLINE
5
140
100
AcDbEntity
8
0
100
AcDbPolyline
90
8
70
1
43
0.0
10
-59.678999999898956
20
92.172000001557151
10
-59.678999999898956
20
79.17200000155718
42
-0.41421356237309509
10
-60.178999999898942
20
78.67200000155718
10
-73.178999999898949
20
78.672000001557166
42
-0.41421356237310542
10
-73.678999999898963
20
79.17200000155718
10
-73.678999999898977
20
92.172000001557151
42
-0.41421356237309509
10
-73.178999999898963
20
92.672000001557166
10
-60.178999999898963
20
92.672000001557166
42
-0.41421356237309509
0
LWPOLYLINE
5
141
100
AcDbEntity
8
0
100
AcDbPolyline
90
8
70
1
43
0.0
10
-92.228999999898932
20
92.672000001557166
10
-79.228999999898932
20
92.672000001557166
42
-0.41421356237309509
10
-78.728999999898932
20
92.172000001557151
10
-78.728999999898932
20
79.17200000155718
42
-0.41421356237309509
10
-79.228999999898917
20
78.672000001557166
10
-92.228999999898932
20
78.672000001557166
42
-0.41421356237309509
10
-92.728999999898946
20
79.172000001557166
10
-92.728999999898946
20
92.172000001557151
42
-0.41421356237309509
0
LWPOLYLINE
5
142
100
AcDbEntity
8
0
100
AcDbPolyline
90
8
70
1
43
0.0
10
-111.27899999989894
20
92.672000001557166
10
-98.278999999898971
20
92.672000001557166
42
-0.41421356237309509
10
-97.778999999898971
20
92.172000001557151
10
-97.778999999898986
20
79.172000001557166
42
-0.41421356237309509
10
-98.278999999898971
20
78.672000001557166
10
-111.27899999989894
20
78.672000001557166
42
-0.41421356237309509
10
-111.77899999989896
20
79.172000001557166
10
-111.77899999989896
20
92.172000001557151
42
-0.41421356237309509
0
LWPOLYLINE
5
143
100
AcDbEntity
8
0
100
AcDbPolyline
90
8
70
1
43
0.0
10
-225.57899999989897
20
92.672000001557137
42
0.41421356237309509
10
-226.07899999989897
20
92.172000001557137
10
-226.07899999989897
20
79.172000001557151
42
0.41421356237309509
10
-225.57899999989897
20
78.672000001557137
10
-212.57899999989894
20
78.672000001557151
42
0.41421356237309509
10
-212.07899999989894
20
79.172000001557151
10
-212.07899999989894
20
92.172000001557137
42
0.41421356237309509
10
-212.57899999989894
20
92.672000001557137
0
LWPOLYLINE
5
144
100
AcDbEntity
8
0
100
AcDbPolyline
90
8
70
1
43
0.0
10
-168.42899999989893
20
92.672000001557137
10
-155.42899999989896
20
92.672000001557166
42
-0.41421356237309509
10
-154.92899999989896
20
92.172000001557151
10
-154.92899999989899
20
79.172000001557151
42
-0.41421356237309509
10
-155.42899999989896
20
78.672000001557166
10
-168.42899999989893
20
78.672000001557151
42
-0.41421356237309509
10
-168.92899999989893
20
79.172000001557151
10
-168.92899999989893
20
92.172000001557137
42
-0.41421356237309509
0
LWPOLYLINE
5
145
100
AcDbEntity
8
0
100
AcDbPolyline
90
8
70
1
43
0.0
10
-135.87899999989895
20
92.172000001557151
10
-135.87899999989898
20
79.172000001557151
42
-0.41421356237309509
10
-136.37899999989895
20
78.672000001557166
10
-149.37899999989895
20
78.672000001557151
42
-0.41421356237309509
10
-149.87899999989895
20
79.172000001557151
10
-149.87899999989895
20
92.172000001557151
42
-0.41421356237309509
10
-149.37899999989895
20
92.672000001557166
10
-136.37899999989895
20
92.672000001557166
42
-0.41421356237309509
0
LWPOLYLINE
5
146
100
AcDbEntity
8
0
100
AcDbPolyline
90
8
70
1
43
0.0
10
-244.62899999989895
20
92.672000001557137
10
-231.62899999989892
20
92.672000001557137
42
-0.41421356237309509
10
-231.12899999989892
20
92.172000001557137
10
-231.12899999989892
20
79.172000001557151
42
-0.41421356237309509
10
-231.62899999989892
20
78.672000001557151
10
-244.62899999989895
20
78.672000001557137
42
-0.4142135623731002
10
-245.12899999989895
20
79.172000001557151
10
-245.12899999989895
20
92.172000001557137
42
-0.41421356237309509
0
LWPOLYLINE
5
147
100
AcDbEntity
8
0
100
AcDbPolyline
90
8
70
1
43
0.0
10
-130.32899999989894
20
92.672000001557166
10
-117.32899999989895
20
92.672000001557166
42
-0.41421356237309509
10
-116.82899999989894
20
92.172000001557151
10
-116.82899999989897
20
79.172000001557166
42
-0.41421356237309509
10
-117.32899999989895
20
78.672000001557166
10
-130.32899999989894
20
78.672000001557151
42
-0.41421356237309509
10
-130.82899999989894
20
79.172000001557151
10
-130.82899999989894
20
92.172000001557151
42
-0.41421356237309509
0
LWPOLYLINE
5
148
100
AcDbEntity
8
0
100
AcDbPolyline
90
8
70
1
43
0.0
10
-173.97899999989892
20
92.172000001557137
10
-173.97899999989892
20
79.172000001557151
42
-0.41421356237309509
10
-174.47899999989892
20
78.672000001557166
10
-187.47899999989895
20
78.672000001557137
42
-0.41421356237309509
10
-187.97899999989895
20
79.172000001557151
10
-187.97899999989895
20
92.172000001557137
42
-0.41421356237309509
10
-187.47899999989895
20
92.672000001557137
10
-174.47899999989892
20
92.672000001557137
42
-0.41421356237309509
0
LWPOLYLINE
5
149
100
AcDbEntity
8
0
100
AcDbPolyline
90
8
70
1
43
0.0
10
-206.52899999989896
20
92.672000001557137
10
-193.52899999989893
20
92.672000001557137
42
-0.41421356237309509
10
-193.02899999989893
20
92.172000001557137
10
-193.02899999989893
20
79.172000001557151
42
-0.41421356237309509
10
-193.52899999989893
20
78.672000001557151
10
-206.52899999989896
20
78.672000001557137
42
-0.41421356237309509
10
-207.02899999989896
20
79.172000001557151
10
-207.02899999989896
20
92.172000001557137
42
-0.41421356237309509
0
LWPOLYLINE
5
150
100
AcDbEntity
8
0
100
AcDbPolyline
90
8
70
1
43
0.0
10
-263.67899999989896
20
92.672000001557123
10
-250.67899999989893
20
92.672000001557137
42
-0.41421356237309509
10
-250.17899999989893
20
92.172000001557137
10
-250.17899999989893
20
79.172000001557151
42
-0.4142135623731002
10
-250.67899999989893
20
78.672000001557137
10
-263.67899999989896
20
78.672000001557137
42
-0.4142135623731002
10
-264.17899999989896
20
79.172000001557151
10
-264.17899999989896
20
92.172000001557123
42
-0.41421356237309509
0
LWPOLYLINE
5
151
100
AcDbEntity
8
0
100
AcDbPolyline
90
8
70
1
43
0.0
10
-282.72899999989897
20
92.672000001557123
10
-269.72899999989897
20
92.672000001557123
42
-0.41421356237309509
10
-269.22899999989897
20
92.172000001557123
10
-269.22899999989897
20
79.172000001557151
42
-0.4142135623731002
10
-269.72899999989897
20
78.672000001557137
10
-282.72899999989897
20
78.672000001557137
42
-0.4142135623731002
10
-283.22899999989897
20
79.172000001557151
10
-283.22899999989897
20
92.172000001557123
42
-0.41421356237309509
0
LWPOLYLINE
5
152
100
AcDbEntity
8
0
100
AcDbPolyline
90
8
70
1
43
0.0
10
-68.416499999898946
20
16.47200000155717
10
-55.416499999898932
20
16.472000001557184
42
-0.41421356237308982
10
-54.916499999898932
20
15.972000001557177
10
-54.916499999898932
20
2.9720000015571593
42
-0.41421356237308915
10
-55.416499999898932
20
2.4720000015571535
10
-68.416499999898946
20
2.4720000015571513
42
-0.41421356237309992
10
-68.91649999989896
20
2.9720000015571579
10
-68.916499999898946
20
15.972000001557173
42
-0.4142135623731002
0
LWPOLYLINE
5
153
100
AcDbEntity
8
0
100
AcDbPolyline
90
8
70
1
43
0.0
10
-44.603999999898925
20
16.472000001557173
10
-31.603999999898921
20
16.472000001557184
42
-0.41421356237308982
10
-31.103999999898925
20
15.972000001557179
10
-31.103999999898917
20
2.972000001557165
42
-0.41421356237309009
10
-31.603999999898917
20
2.4720000015571579
10
-44.603999999898925
20
2.4720000015571553
42
-0.41421356237309959
10
-45.103999999898939
20
2.972000001557161
10
-45.103999999898932
20
15.972000001557177
42
-0.4142135623731002
0
LWPOLYLINE
5
154
100
AcDbEntity
8
0
100
AcDbPolyline
90
8
70
1
43
0.0
10
-20.791499999898949
20
16.472000001557177
42
0.4142135623731002
10
-21.291499999898956
20
15.972000001557181
10
-21.29149999989896
20
2.9720000015571655
42
0.41421356237309992
10
-20.791499999898946
20
2.4720000015571588
10
-7.7914999998989387
20
2.4720000015571615
42
0.41421356237309009
10
-7.2914999998989316
20
2.9720000015571668
10
-7.2914999998989405
20
15.972000001557182
42
0.41421356237309109
10
-7.7914999998989405
20
16.472000001557184
0
LWPOLYLINE
5
155
100
AcDbEntity
8
0
100
AcDbPolyline
90
20
70
1
43
0.0
10
-35.078999999898883
20
92.672000001557166
10
-3.0289999998989026
20
92.67200000155718
42
-0.41421356237309637
10
-2.5289999998988932
20
92.172000001557166
10
-2.5289999998989021
20
79.17200000155718
42
-0.41421356237309509
10
-3.0289999998989003
20
78.67200000155718
10
-3.6159999998989178
20
78.67200000155718
10
-3.6159999998989822
20
77.17200000155718
42
-0.41421356237309337
10
-4.1159999998989685
20
76.67200000155718
10
-10.115999999898948
20
76.672000001557166
42
-0.41421356237310675
10
-10.615999999898966
20
77.17200000155718
10
-10.615999999898946
20
78.67200000155718
10
-27.491999999898908
20
78.67200000155718
10
-27.49199999989894
20
77.172000001557166
42
-0.41421356237309243
10
-27.991999999898923
20
76.672000001557166
10
-33.991999999898937
20
76.672000001557151
42
-0.41421356237310802
10
-34.491999999898958
20
77.172000001557166
10
-34.491999999898937
20
78.672000001557166
10
-35.078999999898883
20
78.672000001557166
42
-0.41421356237309509
10
-35.57899999989889
20
79.17200000155718
10
-35.57899999989889
20
92.172000001557151
42
-0.41421356237309509
0
LWPOLYLINE
5
156
100
AcDbEntity
8
0
100
AcDbPolyline
90
20
70
1
43
0.0
10
-280.34774999989895
20
35.522000001557124
10
-245.57274999989892
20
35.522000001557139
42
-0.41421356237309509
10
-245.07274999989892
20
35.022000001557132
10
-245.07274999989892
20
22.022000001557132
42
-0.41421356237309509
10
-245.57274999989892
20
21.522000001557124
10
-248.88474999989893
20
21.522000001557132
10
-248.88474999989893
20
20.022000001557132
42
-0.41421356237309509
10
-249.38474999989893
20
19.522000001557121
10
-255.3847499998989
20
19.522000001557124
42
-0.41421356237309509
10
-255.88474999989893
20
20.022000001557132
10
-255.88474999989893
20
21.522000001557132
10
-272.76074999989891
20
21.522000001557132
10
-272.76074999989891
20
20.022000001557132
42
-0.41421356237309509
10
-273.26074999989891
20
19.522000001557121
10
-279.26074999989896
20
19.522000001557117
42
-0.41421356237309509
10
-279.76074999989896
20
20.022000001557124
10
-279.76074999989891
20
21.522000001557128
10
-280.34774999989895
20
21.522000001557124
42
-0.4142135623730977
10
-280.84774999989895
20
22.022000001557135
10
-280.84774999989895
20
35.022000001557124
42
-0.41421356237309243
0
LWPOLYLINE
5
157
100
AcDbEntity
8
0
100
AcDbPolyline
90
42
70
1
43
0.0
10
-5.9972499998989299
20
41.877164943411486
10
-5.9972499998989282
20
39.072000001557171
42
-0.41421356237309509
10
-6.4972499998989264
20
38.572000001557171
10
-12.497249999898941
20
38.572000001557157
42
-0.41421356237309509
10
-12.997249999898948
20
39.072000001557164
10
-12.997249999898912
20
41.659000001557168
10
-14.4352499998989
20
41.659000001557168
10
-14.435249999898874
20
41.072000001557171
42
-0.41421356237309509
10
-14.935249999898872
20
40.572000001557171
10
-29.873249999898874
20
40.572000001557164
10
-29.873249999898917
20
39.072000001557157
42
-0.41421356237309509
10
-30.373249999898917
20
38.572000001557157
10
-36.37324999989886
20
38.57200000155715
42
-0.41421356237309509
10
-36.873249999898867
20
39.072000001557157
10
-36.873249999898903
20
40.572000001557164
10
-40.185249999898929
20
40.572000001557157
42
-0.41421356237309509
10
-40.685249999898936
20
41.072000001557157
10
-40.685249999898929
20
54.072000001557171
42
-0.41421356237309509
10
-40.185249999898929
20
54.572000001557164
10
-18.910249999898952
20
54.572000001557171
10
-18.910249999898952
20
59.622000001557176
10
-20.791499999898875
20
59.622000001557169
42
-0.41421356237309509
10
-21.291499999898882
20
60.122000001557169
10
-21.291499999898875
20
73.122000001557169
42
-0.41421356237309509
10
-20.791499999898875
20
73.622000001557169
10
-7.7914999998989023
20
73.622000001557183
42
-0.41421356237308915
10
-7.2914999998988961
20
73.122000001557183
10
-7.2914999998988606
20
72.535000001557179
10
-6.410249999898924
20
72.535000001557179
42
-0.41421356237308854
10
-5.9102499998989275
20
72.035000001557165
10
-5.9102499998989355
20
66.035000001557179
42
-0.41421356237308915
10
-6.410249999898924
20
65.535000001557179
10
-7.2914999998988606
20
65.535000001557179
10
-7.2914999998988606
20
64.097000001557177
10
-5.4102499998989453
20
64.097000001557177
42
-0.41421356237308915
10
-4.9102499998989471
20
63.597000001557177
10
-4.9102499998989551
20
50.597000001557184
42
-0.41421356237308915
10
-5.4102499998989426
20
50.097000001557184
10
-5.9972499998988837
20
50.097000001557177
10
-5.9972499998989468
20
48.440835059702927
42
-0.15083409114180102
10
-5.9102499998989231
20
48.159000001557175
10
-5.91024999989894
20
42.159000001557189
42
-0.15083409114177421
0
LWPOLYLINE
5
158
100
AcDbEntity
8
0
100
AcDbPolyline
90
20
70
1
43
0.0
10
-42.222499999898957
20
35.52200000155716
10
-3.0289999998989066
20
35.522000001557174
42
-0.41421356237308826
10
-2.5289999998989066
20
35.022000001557174
10
-2.5289999998989132
20
22.022000001557185
42
-0.41421356237309243
10
-3.0289999998989026
20
21.522000001557181
10
-10.759749999898924
20
21.522000001557181
10
-10.759749999898908
20
20.022000001557171
42
-0.41421356237309243
10
-11.259749999898895
20
19.522000001557171
10
-17.259749999898911
20
19.52200000155716
42
-0.41421356237310281
10
-17.759749999898926
20
20.022000001557171
10
-17.759749999898919
20
21.522000001557181
10
-34.635749999898955
20
21.522000001557181
10
-34.635749999898962
20
20.022000001557171
42
-0.41421356237309243
10
-35.135749999898962
20
19.522000001557164
10
-41.135749999898934
20
19.522000001557153
42
-0.4142135623731002
10
-41.635749999898948
20
20.02200000155716
10
-41.635749999898941
20
21.522000001557174
10
-42.222499999898957
20
21.52200000155716
42
-0.41421356237309509
10
-42.722499999898965
20
22.022000001557167
10
-42.722499999898957
20
35.022000001557167
42
-0.41421356237309509
0
LWPOLYLINE
5
159
100
AcDbEntity
8
0
100
AcDbPolyline
90
8
70
1
43
0.0
10
-135.87899999989895
20
15.972000001557163
42
0.41421356237309509
10
-136.37899999989895
20
16.47200000155717
10
-149.37899999989892
20
16.472000001557159
42
0.41421356237309509
10
-149.87899999989892
20
15.972000001557161
10
-149.87899999989895
20
2.9720000015571446
42
0.41421356237309509
10
-149.37899999989892
20
2.4720000015571379
10
-136.37899999989895
20
2.4720000015571402
42
0.41421356237309409
10
-135.87899999989895
20
2.9720000015571446
0
LWPOLYLINE
5
160
100
AcDbEntity
8
0
100
AcDbPolyline
90
9
70
1
43
0.0
10
-169.47722615304343
20
3.7220000015571273
42
0.99999999999999989
10
-168.97722615304346
20
3.7220000015571268
10
-168.97722615304346
20
5.2217393108287435
10
-166.70929848845773
20
9.1096153072613752
42
0.99999999999999989
10
-167.14118793890702
20
9.3615508200234228
10
-169.31720312188705
20
5.6312390777719195
10
-179.9893696737887
20
11.856669566381461
42
1.0000000105367119
10
-180.24130518655073
20
11.424780115932275
10
-169.47722615304343
20
5.1457340130527509
0
LWPOLYLINE
5
161
100
AcDbEntity
8
0
100
AcDbPolyline
90
11
70
1
43
0.0
10
-154.92899999989893
20
15.972000001557154
42
0.414213562373069
10
-155.42899999989891
20
16.472000001557152
10
-175.74993017162905
20
16.472000001557149
42
0.76555078539441357
10
-175.85070437673383
20
16.09924422137745
10
-166.70012897437485
20
10.761408570001143
42
-0.26675029845519432
10
-166.20399999989897
20
9.8976296691027486
10
-166.20399999989894
20
6.4720000015568901
10
-168.36188171358765
20
2.7727742066619481
42
0.57884312515180403
10
-168.18912593340795
20
2.4720000015571273
10
-155.42899999989893
20
2.4720000015571246
42
0.414213562373069
10
-154.92899999989893
20
2.9720000015571246
0
LWPOLYLINE
5
162
100
AcDbEntity
8
0
100
AcDbPolyline
90
9
70
1
43
0.0
10
-116.7807738467544
20
3.7220000015571264
42
0.99999999999999989
10
-116.28077384675443
20
3.7220000015571264
10
-116.28077384675443
20
5.1457340130527509
10
-105.5166948132473
20
11.424780115932244
42
0.99999999999999989
10
-105.76863032600914
20
11.856669566381461
10
-116.44079687791083
20
5.6312390777719283
10
-118.61681206089085
20
9.3615508200234103
42
0.99999999999999989
10
-119.04870151134008
20
9.1096153072613379
10
-116.7807738467544
20
5.2217393108287444
0
LWPOLYLINE
5
163
100
AcDbEntity
8
0
100
AcDbPolyline
90
12
70
1
43
0.0
10
-106.62245926674143
20
16.472000001557149
10
-94.778999999898957
20
16.472000001557166
42
-0.41421356237309637
10
-94.278999999898957
20
15.972000001557156
10
-94.278999999898957
20
2.9720000015571166
42
-0.41421356237309698
10
-94.778999999898957
20
2.4720000015571069
10
-113.7635496092431
20
2.4720000015571491
42
-0.76555078539438925
10
-113.8643238143479
20
2.8447557817368052
10
-105.02690282123034
20
7.9999180277222672
42
0.26675029845520831
10
-104.53077384675441
20
8.8636969286206941
10
-104.53077384675441
20
12.018977454816589
42
0.1327909774928217
10
-104.66699494585598
20
12.522848480340677
10
-106.79521504692111
20
16.17122579645233
42
-0.57884312515180336
0
LWPOLYLINE
5
164
100
AcDbEntity
8
0
100
AcDbPolyline
90
11
70
1
43
0.0
10
-130.32899999989891
20
16.472000001557156
10
-110.00806982816883
20
16.472000001557145
42
-0.76555078539440691
10
-109.90729562306402
20
16.099244221377454
10
-119.05787102542303
20
10.76140857000118
42
0.26675029845519838
10
-119.55399999989893
20
9.8976296691027539
10
-119.55399999989893
20
6.472000001556891
10
-117.39611828621022
20
2.7727742066619494
42
-0.57884312515180647
10
-117.56887406638992
20
2.4720000015571268
10
-130.32899999989891
20
2.4720000015571255
42
-0.414213562373069
10
-130.82899999989894
20
2.9720000015571237
10
-130.82899999989894
20
15.972000001557154
42
-0.41421356237308982
0
LWPOLYLINE
5
165
100
AcDbEntity
8
0
100
AcDbPolyline
90
8
70
1
43
0.0
10
-75.678999999898934
20
92.172000001557123
42
0.41421356237309509
10
-76.178999999898949
20
92.672000001557123
10
-76.228999999898946
20
92.672000001557123
42
0.41421356237309509
10
-76.728999999898946
20
92.172000001557123
10
-76.728999999898974
20
79.172000001557137
42
0.41421356237312101
10
-76.228999999898946
20
78.672000001557109
10
-76.178999999898949
20
78.672000001557137
42
0.41421356237309509
10
-75.678999999898906
20
79.172000001557137
0
LWPOLYLINE
5
166
100
AcDbEntity
8
0
100
AcDbPolyline
90
8
70
1
43
0.0
10
-113.77899999989894
20
92.172000001557123
42
0.41421356237309509
10
-114.27899999989896
20
92.672000001557123
10
-114.32899999989894
20
92.672000001557123
42
0.41421356237309509
10
-114.82899999989895
20
92.172000001557123
10
-114.82899999989898
20
79.172000001557137
42
0.41421356237311063
10
-114.32899999989897
20
78.672000001557109
10
-114.27899999989896
20
78.672000001557137
42
0.41421356237309509
10
-113.77899999989891
20
79.172000001557137
0
LWPOLYLINE
5
167
100
AcDbEntity
8
0
100
AcDbPolyline
90
8
70
1
43
0.0
10
-151.87899999989895
20
92.172000001557123
42
0.41421356237309509
10
-152.37899999989895
20
92.672000001557123
10
-152.42899999989896
20
92.672000001557123
42
0.41421356237309509
10
-152.92899999989896
20
92.172000001557123
10
-152.92899999989899
20
79.172000001557137
42
0.41421356237312101
10
-152.42899999989896
20
78.672000001557109
10
-152.37899999989895
20
78.672000001557137
42
0.41421356237309509
10
-151.87899999989892
20
79.172000001557137
0
LWPOLYLINE
5
168
100
AcDbEntity
8
0
100
AcDbPolyline
90
8
70
1
43
0.0
10
-189.97899999989895
20
92.172000001557123
42
0.41421356237309509
10
-190.47899999989895
20
92.672000001557123
10
-190.52899999989893
20
92.672000001557123
42
0.41421356237309509
10
-191.02899999989893
20
92.172000001557123
10
-191.02899999989899
20
79.172000001557137
42
0.41421356237312101
10
-190.52899999989893
20
78.672000001557109
10
-190.47899999989895
20
78.672000001557137
42
0.41421356237309509
10
-189.97899999989892
20
79.172000001557137
0
LWPOLYLINE
5
169
100
AcDbEntity
8
0
100
AcDbPolyline
90
8
70
1
43
0.0
10
-228.07899999989897
20
92.172000001557123
42
0.41421356237309509
10
-228.57899999989897
20
92.672000001557123
10
-228.62899999989895
20
92.672000001557123
42
0.41421356237309509
10
-229.12899999989895
20
92.172000001557123
10
-229.12899999989901
20
79.172000001557137
42
0.41421356237312101
10
-228.62899999989895
20
78.672000001557109
10
-228.57899999989897
20
78.672000001557137
42
0.41421356237309509
10
-228.07899999989894
20
79.172000001557137
0
LWPOLYLINE
5
170
100
AcDbEntity
8
0
100
AcDbPolyline
90
8
70
1
43
0.0
10
-263.67899999989896
20
76.672000001557137
42
0.41421356237312101
10
-264.17899999989902
20
76.172000001557137
10
-264.17899999989896
20
76.122000001557097
42
0.41421356237310542
10
-263.67899999989902
20
75.62200000155714
10
-250.67899999989891
20
75.622000001557112
42
0.41421356237310542
10
-250.17899999989893
20
76.122000001557097
10
-250.17899999989893
20
76.172000001557137
42
0.41421356237312101
10
-250.67899999989896
20
76.672000001557137
0
LWPOLYLINE
5
171
100
AcDbEntity
8
0
100
AcDbPolyline
90
8
70
1
43
0.0
10
-212.57899999989891
20
75.622000001557112
10
-225.578999999899
20
75.62200000155714
42
-0.41421356237310542
10
-226.07899999989897
20
76.122000001557097
10
-226.07899999989897
20
76.172000001557137
42
-0.41421356237312101
10
-225.57899999989897
20
76.672000001557137
10
-212.578999999899
20
76.672000001557151
42
-0.41421356237312101
10
-212.07899999989894
20
76.172000001557137
10
-212.07899999989894
20
76.122000001557097
42
-0.41421356237310542
0
LWPOLYLINE
5
172
100
AcDbEntity
8
0
100
AcDbPolyline
90
8
70
1
43
0.0
10
-174.47899999989892
20
75.622000001557112
10
-187.47899999989903
20
75.622000001557183
42
-0.41421356237310542
10
-187.97899999989895
20
76.122000001557097
10
-187.97899999989895
20
76.172000001557137
42
-0.4142135623731002
10
-187.47899999989897
20
76.672000001557137
10
-174.478999999899
20
76.672000001557123
42
-0.41421356237314189
10
-173.97899999989897
20
76.172000001557137
10
-173.97899999989897
20
76.122000001557097
42
-0.41421356237310542
0
LWPOLYLINE
5
173
100
AcDbEntity
8
0
100
AcDbPolyline
90
8
70
1
43
0.0
10
-136.37899999989889
20
75.622000001557112
10
-149.37899999989901
20
75.62200000155714
42
-0.41421356237310542
10
-149.87899999989895
20
76.122000001557097
10
-149.87899999989898
20
76.172000001557137
42
-0.41421356237312101
10
-149.37899999989895
20
76.672000001557137
10
-136.37899999989898
20
76.672000001557151
42
-0.41421356237312101
10
-135.87899999989895
20
76.172000001557137
10
-135.87899999989895
20
76.122000001557097
42
-0.41421356237310542
0
LWPOLYLINE
5
174
100
AcDbEntity
8
0
100
AcDbPolyline
90
8
70
1
43
0.0
10
-98.278999999898929
20
75.622000001557112
10
-111.27899999989904
20
75.62200000155714
42
-0.41421356237310542
10
-111.77899999989897
20
76.122000001557097
10
-111.77899999989899
20
76.172000001557137
42
-0.41421356237312101
10
-111.27899999989896
20
76.672000001557137
10
-98.278999999898986
20
76.672000001557151
42
-0.41421356237312101
10
-97.778999999898957
20
76.172000001557137
10
-97.778999999898957
20
76.122000001557097
42
-0.41421356237310542
0
LWPOLYLINE
5
175
100
AcDbEntity
8
0
100
AcDbPolyline
90
8
70
1
43
0.0
10
-60.178999999898899
20
75.622000001557112
10
-73.17899999989902
20
75.62200000155714
42
-0.41421356237310542
10
-73.678999999898949
20
76.122000001557097
10
-73.678999999898963
20
76.172000001557137
42
-0.41421356237312101
10
-73.178999999898934
20
76.672000001557137
10
-60.17899999989897
20
76.672000001557151
42
-0.41421356237312101
10
-59.678999999898927
20
76.172000001557137
10
-59.678999999898927
20
76.122000001557097
42
-0.41421356237310542
0
LWPOLYLINE
5
176
100
AcDbEntity
8
0
100
AcDbPolyline
90
8
70
1
43
0.0
10
-41.128999999898923
20
75.622000001557112
10
-54.128999999899037
20
75.62200000155714
42
-0.41421356237310542
10
-54.628999999898973
20
76.122000001557097
10
-54.628999999898994
20
76.172000001557137
42
-0.41421356237312101
10
-54.128999999898966
20
76.672000001557137
10
-41.128999999898994
20
76.672000001557151
42
-0.41421356237312101
10
-40.628999999898952
20
76.172000001557137
10
-40.628999999898952
20
76.122000001557097
42
-0.41421356237310542
0
LWPOLYLINE
5
177
100
AcDbEntity
8
0
100
AcDbPolyline
90
8
70
1
43
0.0
10
-92.228999999898946
20
76.672000001557137
42
0.41421356237312101
10
-92.728999999898974
20
76.172000001557137
10
-92.72899999989896
20
76.122000001557097
42
0.41421356237310542
10
-92.228999999899031
20
75.62200000155714
10
-79.228999999898917
20
75.622000001557097
42
0.41421356237310542
10
-78.728999999898946
20
76.122000001557083
10
-78.728999999898946
20
76.172000001557137
42
0.41421356237312101
10
-79.228999999898974
20
76.672000001557137
0
LWPOLYLINE
5
178
100
AcDbEntity
8
0
100
AcDbPolyline
90
8
70
1
43
0.0
10
-117.32899999989891
20
75.622000001557112
10
-130.32899999989903
20
75.62200000155714
42
-0.41421356237310542
10
-130.82899999989897
20
76.122000001557083
10
-130.828999999899
20
76.172000001557137
42
-0.41421356237312101
10
-130.32899999989897
20
76.672000001557137
10
-117.328999999899
20
76.672000001557151
42
-0.41421356237312101
10
-116.82899999989894
20
76.172000001557137
10
-116.82899999989894
20
76.122000001557097
42
-0.41421356237310542
0
LWPOLYLINE
5
179
100
AcDbEntity
8
0
100
AcDbPolyline
90
8
70
1
43
0.0
10
-155.42899999989891
20
75.622000001557112
10
-168.42899999989902
20
75.62200000155714
42
-0.41421356237310542
10
-168.92899999989896
20
76.122000001557097
10
-168.92899999989902
20
76.172000001557137
42
-0.41421356237312101
10
-168.42899999989896
20
76.672000001557137
10
-155.42899999989899
20
76.672000001557151
42
-0.41421356237312101
10
-154.92899999989896
20
76.172000001557137
10
-154.92899999989896
20
76.122000001557097
42
-0.41421356237310542
0
LWPOLYLINE
5
180
100
AcDbEntity
8
0
100
AcDbPolyline
90
8
70
1
43
0.0
10
-206.52899999989896
20
76.672000001557137
42
0.41421356237312101
10
-207.02899999989896
20
76.172000001557137
10
-207.02899999989896
20
76.122000001557097
42
0.41421356237310542
10
-206.52899999989901
20
75.62200000155714
10
-193.5289999998989
20
75.622000001557112
42
0.41421356237310542
10
-193.02899999989893
20
76.122000001557097
10
-193.02899999989893
20
76.172000001557137
42
0.41421356237312101
10
-193.52899999989899
20
76.672000001557137
0
LWPOLYLINE
5
181
100
AcDbEntity
8
0
100
AcDbPolyline
90
8
70
1
43
0.0
10
-244.62899999989898
20
76.672000001557137
42
0.41421356237312101
10
-245.12899999989898
20
76.172000001557137
10
-245.12899999989898
20
76.122000001557097
42
0.41421356237310542
10
-244.62899999989904
20
75.62200000155714
10
-231.62899999989892
20
75.622000001557112
42
0.41421356237310542
10
-231.12899999989895
20
76.122000001557097
10
-231.12899999989895
20
76.172000001557137
42
0.41421356237312101
10
-231.62899999989901
20
76.672000001557137
0
LWPOLYLINE
5
182
100
AcDbEntity
8
0
100
AcDbPolyline
90
8
70
1
43
0.0
10
-247.12899999989895
20
92.172000001557123
42
0.41421356237309509
10
-247.62899999989895
20
92.672000001557123
10
-247.67899999989893
20
92.672000001557123
42
0.41421356237309509
10
-248.17899999989893
20
92.172000001557123
10
-248.17899999989896
20
79.172000001557137
42
0.41421356237312101
10
-247.67899999989893
20
78.672000001557109
10
-247.62899999989895
20
78.672000001557137
42
0.41421356237309509
10
-247.12899999989889
20
79.172000001557137
0
LWPOLYLINE
5
183
100
AcDbEntity
8
0
100
AcDbPolyline
90
8
70
1
43
0.0
10
-209.02899999989896
20
92.172000001557123
42
0.41421356237309509
10
-209.52899999989896
20
92.672000001557123
10
-209.57899999989894
20
92.672000001557123
42
0.41421356237309509
10
-210.07899999989894
20
92.172000001557123
10
-210.078999999899
20
79.172000001557137
42
0.41421356237312101
10
-209.57899999989894
20
78.672000001557109
10
-209.52899999989896
20
78.672000001557137
42
0.41421356237309509
10
-209.02899999989893
20
79.172000001557137
0
LWPOLYLINE
5
184
100
AcDbEntity
8
0
100
AcDbPolyline
90
8
70
1
43
0.0
10
-170.92899999989896
20
92.172000001557123
42
0.41421356237309509
10
-171.42899999989893
20
92.672000001557095
10
-171.47899999989897
20
92.672000001557123
42
0.41421356237309509
10
-171.97899999989892
20
92.172000001557123
10
-171.978999999899
20
79.172000001557137
42
0.4142135623731002
10
-171.47899999989897
20
78.67200000155708
10
-171.42899999989893
20
78.672000001557137
42
0.41421356237309509
10
-170.92899999989891
20
79.172000001557137
0
LWPOLYLINE
5
185
100
AcDbEntity
8
0
100
AcDbPolyline
90
8
70
1
43
0.0
10
-132.82899999989894
20
92.172000001557123
42
0.41421356237309509
10
-133.32899999989894
20
92.672000001557123
10
-133.37899999989895
20
92.672000001557123
42
0.41421356237309509
10
-133.87899999989895
20
92.172000001557123
10
-133.87899999989898
20
79.172000001557137
42
0.41421356237312101
10
-133.37899999989895
20
78.672000001557109
10
-133.32899999989894
20
78.672000001557123
42
0.41421356237309509
10
-132.82899999989891
20
79.172000001557123
0
LWPOLYLINE
5
186
100
AcDbEntity
8
0
100
AcDbPolyline
90
8
70
1
43
0.0
10
-94.728999999898946
20
92.172000001557123
42
0.41421356237309509
10
-95.22899999989896
20
92.672000001557123
10
-95.278999999898957
20
92.672000001557123
42
0.41421356237309509
10
-95.778999999898957
20
92.172000001557123
10
-95.778999999898986
20
79.172000001557137
42
0.41421356237312101
10
-95.278999999898957
20
78.672000001557109
10
-95.22899999989896
20
78.672000001557137
42
0.41421356237309509
10
-94.728999999898917
20
79.172000001557137
0
LWPOLYLINE
5
187
100
AcDbEntity
8
0
100
AcDbPolyline
90
8
70
1
43
0.0
10
-56.62899999989893
20
92.172000001557123
42
0.41421356237309509
10
-57.128999999898937
20
92.672000001557123
10
-57.178999999898927
20
92.672000001557123
42
0.41421356237309509
10
-57.678999999898934
20
92.172000001557123
10
-57.67899999989897
20
79.172000001557137
42
0.41421356237312101
10
-57.178999999898927
20
78.672000001557109
10
-57.128999999898937
20
78.672000001557137
42
0.41421356237309509
10
-56.628999999898895
20
79.172000001557137
0
LWPOLYLINE
5
188
100
AcDbEntity
8
0
100
AcDbPolyline
90
8
70
1
43
0.0
10
-249.39149999989894
20
38.572000001557136
42
0.4142135623730977
10
-249.89149999989894
20
38.072000001557136
10
-249.89149999989894
20
38.022000001557132
42
0.41421356237309243
10
-249.39149999989894
20
37.522000001557132
10
-236.39149999989897
20
37.522000001557132
42
0.41421356237309243
10
-235.89149999989897
20
38.022000001557132
10
-235.89149999989897
20
38.072000001557136
42
0.4142135623730977
10
-236.39149999989897
20
38.57200000155715
0
LWPOLYLINE
5
189
100
AcDbEntity
8
0
100
AcDbPolyline
90
8
70
1
43
0.0
10
-239.86649999989893
20
19.522000001557142
42
0.4142135623730977
10
-240.36649999989893
20
19.022000001557142
10
-240.36649999989893
20
18.972000001557142
42
0.4142135623730977
10
-239.86649999989893
20
18.472000001557131
10
-226.86649999989896
20
18.472000001557131
42
0.4142135623730977
10
-226.36649999989896
20
18.972000001557142
10
-226.36649999989896
20
19.022000001557142
42
0.4142135623730977
10
-226.86649999989896
20
19.522000001557153
0
LWPOLYLINE
5
190
100
AcDbEntity
8
0
100
AcDbPolyline
90
8
70
1
43
0.0
10
-160.19149999989895
20
37.522000001557132
10
-173.19149999989892
20
37.522000001557124
42
-0.41421356237309509
10
-173.69149999989895
20
38.022000001557132
10
-173.69149999989895
20
38.072000001557136
42
-0.41421356237309509
10
-173.19149999989892
20
38.572000001557129
10
-160.19149999989895
20
38.57200000155715
42
-0.4142135623730977
10
-159.69149999989895
20
38.072000001557136
10
-159.69149999989895
20
38.022000001557132
42
-0.41421356237309243
0
LWPOLYLINE
5
191
100
AcDbEntity
8
0
100
AcDbPolyline
90
8
70
1
43
0.0
10
-167.21649999989893
20
22.022000001557132
42
0.4142135623730977
10
-166.71649999989893
20
21.522000001557121
10
-166.66649999989892
20
21.522000001557132
42
0.41421356237312884
10
-166.16649999989892
20
22.022000001557132
10
-166.16649999989892
20
35.022000001557139
42
0.41421356237312884
10
-166.66649999989892
20
35.522000001557132
10
-166.71649999989893
20
35.522000001557132
42
0.41421356237311846
10
-167.21649999989896
20
35.022000001557139
0
LWPOLYLINE
5
192
100
AcDbEntity
8
0
100
AcDbPolyline
90
8
70
1
43
0.0
10
-150.16649999989895
20
19.022000001557142
10
-150.16649999989895
20
18.972000001557142
42
-0.41421356237309892
10
-150.66649999989895
20
18.472000001557131
10
-163.66649999989892
20
18.472000001557131
42
-0.4142135623730977
10
-164.16649999989892
20
18.972000001557142
10
-164.16649999989892
20
19.022000001557139
42
-0.4142135623730977
10
-163.66649999989892
20
19.522000001557139
10
-150.66649999989895
20
19.522000001557153
42
-0.41421356237309637
0
LWPOLYLINE
5
193
100
AcDbEntity
8
0
100
AcDbPolyline
90
8
70
1
43
0.0
10
-99.991499999898892
20
40.572000001557143
10
-100.04149999989889
20
40.572000001557136
42
-0.41421356237307422
10
-100.54149999989892
20
41.072000001557143
10
-100.54149999989889
20
54.072000001557129
42
-0.41421356237313145
10
-100.04149999989889
20
54.572000001557129
10
-99.991499999898892
20
54.57200000155715
42
-0.41421356237312101
10
-99.491499999898849
20
54.072000001557129
10
-99.491499999898878
20
41.072000001557129
42
-0.41421356237312101
0
LWPOLYLINE
5
194
100
AcDbEntity
8
0
100
AcDbPolyline
90
8
70
1
43
0.0
10
-129.11649999989893
20
22.022000001557132
42
0.4142135623730977
10
-128.61649999989893
20
21.522000001557121
10
-128.56649999989895
20
21.522000001557132
42
0.41421356237312884
10
-128.06649999989895
20
22.022000001557132
10
-128.06649999989895
20
35.022000001557139
42
0.41421356237312884
10
-128.56649999989895
20
35.522000001557132
10
-128.61649999989893
20
35.522000001557132
42
0.41421356237311846
10
-129.11649999989896
20
35.022000001557139
0
LWPOLYLINE
5
195
100
AcDbEntity
8
0
100
AcDbPolyline
90
8
70
1
43
0.0
10
-112.06649999989895
20
19.022000001557139
10
-112.06649999989895
20
18.972000001557142
42
-0.4142135623730977
10
-112.56649999989897
20
18.472000001557131
10
-125.56649999989894
20
18.472000001557131
42
-0.4142135623730977
10
-126.06649999989895
20
18.972000001557142
10
-126.06649999989892
20
19.022000001557139
42
-0.4142135623730977
10
-125.56649999989894
20
19.522000001557139
10
-112.56649999989897
20
19.522000001557153
42
-0.4142135623730977
0
LWPOLYLINE
5
196
100
AcDbEntity
8
0
100
AcDbPolyline
90
8
70
1
43
0.0
10
-143.40399999989896
20
60.122000001557119
42
0.41421356237312101
10
-142.90399999989899
20
59.622000001557119
10
-142.85399999989897
20
59.622000001557119
42
0.41421356237312101
10
-142.35399999989895
20
60.122000001557119
10
-142.35399999989897
20
73.122000001557112
42
0.41421356237312101
10
-142.85399999989897
20
73.622000001557097
10
-142.90399999989896
20
73.622000001557097
42
0.41421356237307422
10
-143.40399999989901
20
73.122000001557097
0
LWPOLYLINE
5
197
100
AcDbEntity
8
0
100
AcDbPolyline
90
8
70
1
43
0.0
10
-126.8539999998989
20
56.572000001557129
10
-139.85399999989903
20
56.572000001557129
42
-0.41421356237310542
10
-140.35399999989895
20
57.072000001557086
10
-140.35399999989897
20
57.122000001557126
42
-0.41421356237312101
10
-139.85399999989895
20
57.622000001557126
10
-126.85399999989897
20
57.622000001557147
42
-0.41421356237312101
10
-126.35399999989893
20
57.122000001557126
10
-126.35399999989893
20
57.072000001557086
42
-0.41421356237304296
0
LWPOLYLINE
5
198
100
AcDbEntity
8
0
100
AcDbPolyline
90
8
70
1
43
0.0
10
-73.966499999898957
20
19.022000001557142
10
-73.966499999898957
20
18.972000001557142
42
-0.4142135623730977
10
-74.466499999898957
20
18.472000001557131
10
-87.466499999898929
20
18.472000001557131
42
-0.4142135623730977
10
-87.966499999898943
20
18.972000001557142
10
-87.966499999898929
20
19.022000001557142
42
-0.4142135623730977
10
-87.466499999898929
20
19.522000001557142
10
-74.466499999898957
20
19.522000001557153
42
-0.4142135623730977
0
LWPOLYLINE
5
199
100
AcDbEntity
8
0
100
AcDbPolyline
90
8
70
1
43
0.0
10
-64.94149999989898
20
37.522000001557124
10
-77.941499999898952
20
37.522000001557132
42
-0.41421356237309243
10
-78.441499999898952
20
38.022000001557132
10
-78.441499999898937
20
38.072000001557136
42
-0.4142135623730977
10
-77.941499999898952
20
38.572000001557136
10
-64.94149999989898
20
38.572000001557143
42
-0.4142135623730977
10
-64.441499999898966
20
38.072000001557129
10
-64.441499999898966
20
38.022000001557132
42
-0.41421356237309243
0
LWPOLYLINE
5
200
100
AcDbEntity
8
0
100
AcDbPolyline
90
8
70
1
43
0.0
10
-181.50399999989898
20
60.122000001557119
42
0.41421356237313145
10
-181.00399999989895
20
59.622000001557119
10
-180.95399999989897
20
59.622000001557119
42
0.41421356237312101
10
-180.45399999989897
20
60.122000001557119
10
-180.45399999989897
20
73.122000001557112
42
0.41421356237312101
10
-180.95399999989897
20
73.622000001557097
10
-181.00399999989895
20
73.622000001557097
42
0.41421356237307422
10
-181.50399999989901
20
73.122000001557097
0
LWPOLYLINE
5
201
100
AcDbEntity
8
0
100
AcDbPolyline
90
8
70
1
43
0.0
10
-157.14149999989888
20
40.572000001557143
10
-157.19149999989889
20
40.572000001557136
42
-0.41421356237307422
10
-157.69149999989892
20
41.072000001557143
10
-157.69149999989889
20
54.072000001557129
42
-0.41421356237313145
10
-157.19149999989889
20
54.572000001557129
10
-157.14149999989888
20
54.57200000155715
42
-0.41421356237312101
10
-156.64149999989885
20
54.072000001557129
10
-156.64149999989888
20
41.072000001557129
42
-0.41421356237312101
0
LWPOLYLINE
5
202
100
AcDbEntity
8
0
100
AcDbPolyline
90
8
70
1
43
0.0
10
-67.203999999898969
20
60.122000001557119
42
0.41421356237313145
10
-66.703999999898969
20
59.622000001557119
10
-66.653999999898986
20
59.622000001557119
42
0.41421356237312101
10
-66.153999999898957
20
60.122000001557119
10
-66.153999999898971
20
73.122000001557112
42
0.41421356237312101
10
-66.653999999898986
20
73.622000001557097
10
-66.703999999898969
20
73.622000001557097
42
0.41421356237307422
10
-67.203999999899011
20
73.122000001557097
0
LWPOLYLINE
5
203
100
AcDbEntity
8
0
100
AcDbPolyline
90
8
70
1
43
0.0
10
-184.00399999989889
20
56.572000001557122
10
-197.00399999989907
20
56.572000001557129
42
-0.41421356237308465
10
-197.50399999989895
20
57.072000001557086
10
-197.50399999989895
20
57.122000001557126
42
-0.41421356237312101
10
-197.00399999989895
20
57.622000001557126
10
-184.00399999989898
20
57.62200000155714
42
-0.41421356237311585
10
-183.50399999989892
20
57.122000001557126
10
-183.50399999989892
20
57.072000001557086
42
-0.41421356237304818
0
LWPOLYLINE
5
204
100
AcDbEntity
8
0
100
AcDbPolyline
90
8
70
1
43
0.0
10
-162.45399999989897
20
60.122000001557119
42
0.41421356237313145
10
-161.95399999989894
20
59.622000001557119
10
-161.90399999989896
20
59.622000001557119
42
0.41421356237312101
10
-161.40399999989896
20
60.122000001557119
10
-161.40399999989896
20
73.122000001557112
42
0.41421356237312101
10
-161.90399999989896
20
73.622000001557097
10
-161.95399999989894
20
73.622000001557097
42
0.41421356237307422
10
-162.453999999899
20
73.122000001557097
0
LWPOLYLINE
5
205
100
AcDbEntity
8
0
100
AcDbPolyline
90
8
70
1
43
0.0
10
-61.891499999898905
20
40.572000001557143
10
-61.941499999898895
20
40.572000001557136
42
-0.41421356237307422
10
-62.441499999898937
20
41.072000001557143
10
-62.441499999898902
20
54.072000001557129
42
-0.41421356237313145
10
-61.941499999898895
20
54.572000001557129
10
-61.891499999898905
20
54.57200000155715
42
-0.41421356237312101
10
-61.391499999898862
20
54.072000001557129
10
-61.391499999898897
20
41.072000001557129
42
-0.41421356237312101
0
LWPOLYLINE
5
206
100
AcDbEntity
8
0
100
AcDbPolyline
90
8
70
1
43
0.0
10
-31.603999999898882
20
56.572000001557129
10
-44.603999999898996
20
56.572000001557129
42
-0.41421356237310542
10
-45.103999999898932
20
57.072000001557086
10
-45.103999999898946
20
57.122000001557126
42
-0.41421356237312101
10
-44.603999999898925
20
57.622000001557126
10
-31.603999999898953
20
57.622000001557147
42
-0.41421356237312101
10
-31.10399999989891
20
57.122000001557126
10
-31.10399999989891
20
57.072000001557086
42
-0.41421356237304296
0
LWPOLYLINE
5
207
100
AcDbEntity
8
0
100
AcDbPolyline
90
8
70
1
43
0.0
10
-107.80399999989889
20
56.572000001557129
10
-120.80399999989901
20
56.572000001557129
42
-0.41421356237310542
10
-121.30399999989893
20
57.072000001557086
10
-121.30399999989896
20
57.122000001557126
42
-0.41421356237312101
10
-120.80399999989893
20
57.622000001557126
10
-107.80399999989896
20
57.622000001557147
42
-0.41421356237312101
10
-107.30399999989892
20
57.122000001557126
10
-107.30399999989892
20
57.072000001557086
42
-0.41421356237304296
0
LWPOLYLINE
5
208
100
AcDbEntity
8
0
100
AcDbPolyline
90
8
70
1
43
0.0
10
-124.35399999989897
20
60.122000001557119
42
0.41421356237313145
10
-123.85399999989897
20
59.622000001557119
10
-123.80399999989898
20
59.622000001557119
42
0.41421356237312101
10
-123.30399999989895
20
60.122000001557119
10
-123.30399999989896
20
73.122000001557112
42
0.41421356237312101
10
-123.80399999989898
20
73.622000001557097
10
-123.85399999989897
20
73.622000001557097
42
0.41421356237307422
10
-124.353999999899
20
73.122000001557097
0
LWPOLYLINE
5
209
100
AcDbEntity
8
0
100
AcDbPolyline
90
8
70
1
43
0.0
10
-93.01649999989894
20
19.022000001557142
10
-93.01649999989894
20
18.972000001557142
42
-0.4142135623730977
10
-93.516499999898954
20
18.472000001557131
10
-106.51649999989893
20
18.472000001557131
42
-0.4142135623730977
10
-107.01649999989894
20
18.972000001557142
10
-107.01649999989891
20
19.022000001557142
42
-0.4142135623730977
10
-106.51649999989893
20
19.522000001557142
10
-93.516499999898954
20
19.522000001557153
42
-0.4142135623730977
0
LWPOLYLINE
5
210
100
AcDbEntity
8
0
100
AcDbPolyline
90
8
70
1
43
0.0
10
-110.06649999989892
20
22.022000001557132
42
0.4142135623730977
10
-109.56649999989892
20
21.522000001557121
10
-109.51649999989894
20
21.522000001557132
42
0.41421356237312884
10
-109.01649999989893
20
22.022000001557132
10
-109.01649999989893
20
35.022000001557139
42
0.41421356237312884
10
-109.51649999989894
20
35.522000001557132
10
-109.56649999989892
20
35.522000001557132
42
0.41421356237311846
10
-110.06649999989897
20
35.022000001557139
0
LWPOLYLINE
5
211
100
AcDbEntity
8
0
100
AcDbPolyline
90
8
70
1
43
0.0
10
-122.09149999989897
20
37.522000001557132
10
-135.09149999989893
20
37.522000001557132
42
-0.41421356237309243
10
-135.59149999989896
20
38.022000001557132
10
-135.59149999989893
20
38.072000001557136
42
-0.4142135623730977
10
-135.09149999989893
20
38.572000001557136
10
-122.09149999989897
20
38.57200000155715
42
-0.4142135623730977
10
-121.59149999989896
20
38.072000001557136
10
-121.59149999989896
20
38.022000001557132
42
-0.41421356237309243
0
LWPOLYLINE
5
212
100
AcDbEntity
8
0
100
AcDbPolyline
90
8
70
1
43
0.0
10
-152.42899999989891
20
16.472000001557149
10
-152.37899999989892
20
16.472000001557149
42
-0.41421356237308854
10
-151.87899999989892
20
15.972000001557154
10
-151.87899999989892
20
2.9720000015571562
42
-0.41421356237309076
10
-152.37899999989892
20
2.4720000015571557
10
-152.42899999989891
20
2.4720000015571566
42
-0.41421356237309048
10
-152.92899999989891
20
2.9720000015571557
10
-152.92899999989891
20
15.972000001557149
42
-0.41421356237309109
0
LWPOLYLINE
5
213
100
AcDbEntity
8
0
100
AcDbPolyline
90
8
70
1
43
0.0
10
-148.16649999989895
20
22.022000001557132
42
0.4142135623730977
10
-147.66649999989892
20
21.522000001557121
10
-147.61649999989893
20
21.522000001557132
42
0.41421356237312884
10
-147.11649999989893
20
22.022000001557132
10
-147.11649999989893
20
35.022000001557139
42
0.41421356237312884
10
-147.61649999989893
20
35.522000001557132
10
-147.66649999989892
20
35.522000001557132
42
0.41421356237311846
10
-148.16649999989897
20
35.022000001557139
0
LWPOLYLINE
5
214
100
AcDbEntity
8
0
100
AcDbPolyline
90
8
70
1
43
0.0
10
-141.14149999989897
20
37.522000001557132
10
-154.14149999989894
20
37.522000001557132
42
-0.41421356237309243
10
-154.64149999989894
20
38.022000001557132
10
-154.64149999989894
20
38.072000001557136
42
-0.4142135623730977
10
-154.14149999989894
20
38.572000001557136
10
-141.14149999989897
20
38.57200000155715
42
-0.4142135623730977
10
-140.64149999989897
20
38.072000001557136
10
-140.64149999989897
20
38.022000001557132
42
-0.41421356237309243
0
LWPOLYLINE
5
215
100
AcDbEntity
8
0
100
AcDbPolyline
90
8
70
1
43
0.0
10
-222.10399999989889
20
56.572000001557129
10
-235.103999999899
20
56.572000001557129
42
-0.41421356237310542
10
-235.60399999989895
20
57.072000001557086
10
-235.60399999989897
20
57.122000001557126
42
-0.41421356237312101
10
-235.10399999989892
20
57.622000001557126
10
-222.10399999989897
20
57.622000001557147
42
-0.41421356237312101
10
-221.60399999989892
20
57.122000001557126
10
-221.60399999989892
20
57.072000001557086
42
-0.41421356237304296
0
LWPOLYLINE
5
216
100
AcDbEntity
8
0
100
AcDbPolyline
90
8
70
1
43
0.0
10
-219.60399999989897
20
60.122000001557119
42
0.41421356237313145
10
-219.10399999989895
20
59.622000001557119
10
-219.05399999989896
20
59.622000001557119
42
0.41421356237312101
10
-218.55399999989891
20
60.122000001557119
10
-218.55399999989896
20
73.122000001557112
42
0.41421356237312101
10
-219.05399999989896
20
73.622000001557097
10
-219.10399999989895
20
73.622000001557097
42
0.41421356237307422
10
-219.603999999899
20
73.122000001557097
0
LWPOLYLINE
5
217
100
AcDbEntity
8
0
100
AcDbPolyline
90
8
70
1
43
0.0
10
-233.89149999989894
20
41.072000001557143
10
-233.89149999989888
20
54.072000001557129
42
-0.41421356237313145
10
-233.39149999989888
20
54.572000001557129
10
-233.3414999998989
20
54.57200000155715
42
-0.41421356237312101
10
-232.84149999989887
20
54.072000001557129
10
-232.8414999998989
20
41.072000001557129
42
-0.41421356237312101
10
-233.3414999998989
20
40.572000001557143
10
-233.39149999989888
20
40.572000001557136
42
-0.41421356237307422
0
LWPOLYLINE
5
218
100
AcDbEntity
8
0
100
AcDbPolyline
90
8
70
1
43
0.0
10
-224.36649999989893
20
22.022000001557128
42
0.4142135623730977
10
-223.86649999989891
20
21.522000001557117
10
-223.81649999989892
20
21.522000001557128
42
0.41421356237313145
10
-223.31649999989892
20
22.022000001557132
10
-223.31649999989892
20
35.022000001557139
42
0.41421356237312629
10
-223.81649999989892
20
35.522000001557132
10
-223.86649999989891
20
35.522000001557132
42
0.41421356237311846
10
-224.36649999989896
20
35.022000001557132
0
LWPOLYLINE
5
219
100
AcDbEntity
8
0
100
AcDbPolyline
90
8
70
1
43
0.0
10
-207.31649999989895
20
19.022000001557142
10
-207.31649999989895
20
18.972000001557142
42
-0.4142135623730977
10
-207.81649999989895
20
18.472000001557131
10
-220.81649999989892
20
18.472000001557131
42
-0.4142135623730977
10
-221.31649999989892
20
18.972000001557142
10
-221.31649999989892
20
19.022000001557142
42
-0.4142135623730977
10
-220.81649999989892
20
19.522000001557142
10
-207.81649999989895
20
19.522000001557153
42
-0.4142135623730977
0
LWPOLYLINE
5
220
100
AcDbEntity
8
0
100
AcDbPolyline
90
8
70
1
43
0.0
10
-238.65399999989899
20
60.122000001557112
42
0.41421356237313145
10
-238.15399999989896
20
59.622000001557112
10
-238.10399999989897
20
59.622000001557112
42
0.41421356237312101
10
-237.60399999989892
20
60.122000001557112
10
-237.60399999989897
20
73.122000001557112
42
0.41421356237312101
10
-238.10399999989897
20
73.622000001557083
10
-238.15399999989896
20
73.622000001557083
42
0.41421356237307422
10
-238.65399999989901
20
73.122000001557097
0
LWPOLYLINE
5
221
100
AcDbEntity
8
0
100
AcDbPolyline
90
8
70
1
43
0.0
10
-179.24149999989896
20
37.522000001557132
10
-192.24149999989893
20
37.522000001557132
42
-0.41421356237309243
10
-192.74149999989896
20
38.022000001557132
10
-192.74149999989896
20
38.072000001557136
42
-0.4142135623730977
10
-192.24149999989893
20
38.572000001557136
10
-179.24149999989896
20
38.57200000155715
42
-0.4142135623730977
10
-178.74149999989896
20
38.072000001557136
10
-178.74149999989896
20
38.022000001557132
42
-0.41421356237309243
0
LWPOLYLINE
5
222
100
AcDbEntity
8
0
100
AcDbPolyline
90
8
70
1
43
0.0
10
-186.26649999989894
20
22.022000001557132
42
0.4142135623730977
10
-185.76649999989894
20
21.522000001557121
10
-185.71649999989893
20
21.522000001557132
42
0.41421356237312884
10
-185.21649999989893
20
22.022000001557132
10
-185.21649999989893
20
35.022000001557139
42
0.41421356237312884
10
-185.71649999989893
20
35.522000001557132
10
-185.76649999989894
20
35.522000001557132
42
0.41421356237311846
10
-186.26649999989897
20
35.022000001557139
0
LWPOLYLINE
5
223
100
AcDbEntity
8
0
100
AcDbPolyline
90
8
70
1
43
0.0
10
-169.21649999989896
20
19.022000001557142
10
-169.21649999989896
20
18.972000001557142
42
-0.4142135623730977
10
-169.71649999989896
20
18.472000001557131
10
-182.71649999989893
20
18.472000001557131
42
-0.4142135623730977
10
-183.21649999989893
20
18.972000001557142
10
-183.21649999989893
20
19.022000001557142
42
-0.4142135623730977
10
-182.71649999989893
20
19.522000001557142
10
-169.71649999989896
20
19.522000001557153
42
-0.4142135623730977
0
LWPOLYLINE
5
224
100
AcDbEntity
8
0
100
AcDbPolyline
90
8
70
1
43
0.0
10
-119.0414999998989
20
40.572000001557143
10
-119.0914999998989
20
40.572000001557136
42
-0.41421356237307422
10
-119.59149999989893
20
41.072000001557143
10
-119.5914999998989
20
54.072000001557129
42
-0.41421356237313145
10
-119.0914999998989
20
54.572000001557129
10
-119.0414999998989
20
54.57200000155715
42
-0.41421356237312101
10
-118.54149999989886
20
54.072000001557129
10
-118.54149999989889
20
41.072000001557129
42
-0.41421356237312101
0
LWPOLYLINE
5
225
100
AcDbEntity
8
0
100
AcDbPolyline
90
8
70
1
43
0.0
10
-83.991499999898963
20
37.522000001557132
10
-96.991499999898934
20
37.522000001557132
42
-0.41421356237309243
10
-97.491499999898949
20
38.022000001557132
10
-97.491499999898934
20
38.072000001557136
42
-0.4142135623730977
10
-96.991499999898934
20
38.572000001557136
10
-83.991499999898963
20
38.57200000155715
42
-0.4142135623730977
10
-83.491499999898963
20
38.072000001557136
10
-83.491499999898963
20
38.022000001557132
42
-0.41421356237309243
0
LWPOLYLINE
5
226
100
AcDbEntity
8
0
100
AcDbPolyline
90
8
70
1
43
0.0
10
-131.11649999989896
20
19.022000001557142
10
-131.11649999989896
20
18.972000001557142
42
-0.4142135623730977
10
-131.61649999989896
20
18.472000001557131
10
-144.61649999989893
20
18.472000001557131
42
-0.4142135623730977
10
-145.11649999989893
20
18.972000001557142
10
-145.11649999989891
20
19.022000001557142
42
-0.4142135623730977
10
-144.61649999989893
20
19.522000001557142
10
-131.61649999989896
20
19.522000001557153
42
-0.4142135623730977
0
LWPOLYLINE
5
227
100
AcDbEntity
8
0
100
AcDbPolyline
90
8
70
1
43
0.0
10
-132.82899999989891
20
15.972000001557156
42
0.41421356237308854
10
-133.32899999989891
20
16.472000001557152
10
-133.37899999989889
20
16.472000001557152
42
0.41421356237309243
10
-133.87899999989889
20
15.972000001557149
10
-133.87899999989889
20
2.9720000015571557
42
0.41421356237309048
10
-133.37899999989889
20
2.4720000015571566
10
-133.32899999989891
20
2.4720000015571557
42
0.41421356237308982
10
-132.82899999989891
20
2.9720000015571535
0
LWPOLYLINE
5
228
100
AcDbEntity
8
0
100
AcDbPolyline
90
8
70
1
43
0.0
10
-86.253999999898966
20
60.122000001557119
42
0.41421356237312101
10
-85.75399999989898
20
59.622000001557119
10
-85.703999999898969
20
59.622000001557119
42
0.41421356237312101
10
-85.20399999989894
20
60.122000001557119
10
-85.203999999898969
20
73.122000001557112
42
0.41421356237312101
10
-85.703999999898969
20
73.622000001557097
10
-85.753999999898966
20
73.622000001557097
42
0.41421356237307422
10
-86.253999999899008
20
73.122000001557097
0
LWPOLYLINE
5
229
100
AcDbEntity
8
0
100
AcDbPolyline
90
8
70
1
43
0.0
10
-54.91649999989896
20
19.022000001557142
10
-54.91649999989896
20
18.972000001557142
42
-0.4142135623730977
10
-55.416499999898967
20
18.472000001557131
10
-68.416499999898946
20
18.472000001557131
42
-0.4142135623730977
10
-68.916499999898946
20
18.972000001557142
10
-68.916499999898932
20
19.022000001557142
42
-0.4142135623730977
10
-68.416499999898946
20
19.522000001557142
10
-55.416499999898967
20
19.522000001557153
42
-0.4142135623730977
0
LWPOLYLINE
5
230
100
AcDbEntity
8
0
100
AcDbPolyline
90
8
70
1
43
0.0
10
-45.891499999898961
20
37.522000001557132
10
-58.891499999898933
20
37.522000001557132
42
-0.41421356237309243
10
-59.39149999989894
20
38.022000001557132
10
-59.391499999898926
20
38.072000001557136
42
-0.4142135623730977
10
-58.891499999898933
20
38.572000001557136
10
-45.891499999898961
20
38.57200000155715
42
-0.4142135623730977
10
-45.391499999898954
20
38.072000001557136
10
-45.391499999898954
20
38.022000001557132
42
-0.41421356237309243
0
LWPOLYLINE
5
231
100
AcDbEntity
8
0
100
AcDbPolyline
90
8
70
1
43
0.0
10
-69.703999999898912
20
56.572000001557129
10
-82.703999999899025
20
56.572000001557129
42
-0.41421356237310542
10
-83.203999999898954
20
57.072000001557086
10
-83.203999999898969
20
57.122000001557126
42
-0.41421356237312101
10
-82.70399999989894
20
57.622000001557126
10
-69.703999999898969
20
57.622000001557147
42
-0.41421356237312101
10
-69.20399999989894
20
57.122000001557126
10
-69.20399999989894
20
57.072000001557086
42
-0.41421356237304296
0
LWPOLYLINE
5
232
100
AcDbEntity
8
0
100
AcDbPolyline
90
8
70
1
43
0.0
10
-48.153999999898964
20
60.122000001557119
42
0.41421356237313145
10
-47.653999999898957
20
59.622000001557119
10
-47.603999999898967
20
59.622000001557119
42
0.41421356237312101
10
-47.103999999898946
20
60.122000001557119
10
-47.10399999989896
20
73.122000001557112
42
0.41421356237312101
10
-47.603999999898967
20
73.622000001557097
10
-47.653999999898957
20
73.622000001557097
42
0.41421356237307422
10
-48.153999999899
20
73.122000001557097
0
LWPOLYLINE
5
233
100
AcDbEntity
8
0
100
AcDbPolyline
90
8
70
1
43
0.0
10
-200.55399999989899
20
60.122000001557119
42
0.41421356237313145
10
-200.05399999989896
20
59.622000001557119
10
-200.00399999989898
20
59.622000001557119
42
0.41421356237312101
10
-199.50399999989898
20
60.122000001557119
10
-199.50399999989898
20
73.122000001557112
42
0.41421356237312101
10
-200.00399999989898
20
73.622000001557097
10
-200.05399999989896
20
73.622000001557097
42
0.41421356237307422
10
-200.55399999989902
20
73.122000001557097
0
LWPOLYLINE
5
234
100
AcDbEntity
8
0
100
AcDbPolyline
90
8
70
1
43
0.0
10
-176.19149999989889
20
40.572000001557143
10
-176.24149999989891
20
40.572000001557136
42
-0.41421356237307422
10
-176.74149999989893
20
41.072000001557143
10
-176.74149999989891
20
54.072000001557129
42
-0.41421356237313145
10
-176.24149999989891
20
54.572000001557129
10
-176.19149999989889
20
54.57200000155715
42
-0.41421356237312101
10
-175.69149999989887
20
54.072000001557129
10
-175.69149999989889
20
41.072000001557129
42
-0.41421356237312101
0
LWPOLYLINE
5
235
100
AcDbEntity
8
0
100
AcDbPolyline
90
8
70
1
43
0.0
10
-145.9039999998989
20
56.572000001557129
10
-158.90399999989901
20
56.572000001557129
42
-0.41421356237310542
10
-159.40399999989896
20
57.072000001557086
10
-159.40399999989896
20
57.122000001557126
42
-0.41421356237312101
10
-158.90399999989893
20
57.622000001557126
10
-145.90399999989896
20
57.622000001557147
42
-0.41421356237311063
10
-145.40399999989893
20
57.122000001557126
10
-145.40399999989893
20
57.072000001557086
42
-0.41421356237304296
0
LWPOLYLINE
5
236
100
AcDbEntity
8
0
100
AcDbPolyline
90
8
70
1
43
0.0
10
-164.95399999989888
20
56.572000001557129
10
-177.95399999989905
20
56.572000001557129
42
-0.41421356237308465
10
-178.45399999989894
20
57.072000001557086
10
-178.45399999989894
20
57.122000001557126
42
-0.41421356237312101
10
-177.95399999989894
20
57.622000001557126
10
-164.95399999989897
20
57.622000001557147
42
-0.41421356237312101
10
-164.45399999989891
20
57.122000001557126
10
-164.45399999989891
20
57.072000001557086
42
-0.41421356237304296
0
LWPOLYLINE
5
237
100
AcDbEntity
8
0
100
AcDbPolyline
90
8
70
1
43
0.0
10
-195.24149999989891
20
40.572000001557143
10
-195.29149999989892
20
40.572000001557136
42
-0.41421356237307422
10
-195.79149999989895
20
41.072000001557143
10
-195.79149999989892
20
54.072000001557129
42
-0.41421356237313145
10
-195.29149999989892
20
54.572000001557129
10
-195.24149999989891
20
54.57200000155715
42
-0.41421356237312101
10
-194.74149999989888
20
54.072000001557129
10
-194.74149999989891
20
41.072000001557129
42
-0.41421356237312101
0
LWPOLYLINE
5
238
100
AcDbEntity
8
0
100
AcDbPolyline
90
8
70
1
43
0.0
10
-80.941499999898895
20
40.572000001557143
10
-80.991499999898892
20
40.572000001557136
42
-0.41421356237307422
10
-81.491499999898934
20
41.072000001557143
10
-81.491499999898892
20
54.072000001557129
42
-0.41421356237313145
10
-80.991499999898892
20
54.572000001557129
10
-80.941499999898923
20
54.57200000155715
42
-0.41421356237312101
10
-80.441499999898852
20
54.072000001557129
10
-80.441499999898895
20
41.072000001557129
42
-0.41421356237312101
0
LWPOLYLINE
5
239
100
AcDbEntity
8
0
100
AcDbPolyline
90
8
70
1
43
0.0
10
-50.653999999898893
20
56.572000001557129
10
-63.653999999899007
20
56.572000001557129
42
-0.41421356237310542
10
-64.153999999898943
20
57.072000001557086
10
-64.153999999898957
20
57.122000001557126
42
-0.41421356237312101
10
-63.653999999898936
20
57.622000001557126
10
-50.653999999898964
20
57.622000001557147
42
-0.41421356237312101
10
-50.153999999898922
20
57.122000001557126
10
-50.153999999898922
20
57.072000001557086
42
-0.41421356237304296
0
LWPOLYLINE
5
240
100
AcDbEntity
8
0
100
AcDbPolyline
90
8
70
1
43
0.0
10
-71.966499999898943
20
22.022000001557132
42
0.4142135623730977
10
-71.466499999898929
20
21.522000001557121
10
-71.416499999898946
20
21.522000001557132
42
0.41421356237312884
10
-70.916499999898946
20
22.022000001557132
10
-70.916499999898946
20
35.022000001557139
42
0.41421356237312884
10
-71.416499999898946
20
35.522000001557132
10
-71.466499999898929
20
35.522000001557132
42
0.41421356237311846
10
-71.966499999898986
20
35.022000001557139
0
LWPOLYLINE
5
241
100
AcDbEntity
8
0
100
AcDbPolyline
90
8
70
1
43
0.0
10
-88.753999999898895
20
56.572000001557129
10
-101.75399999989901
20
56.572000001557129
42
-0.41421356237310542
10
-102.25399999989895
20
57.072000001557086
10
-102.25399999989897
20
57.122000001557126
42
-0.41421356237312101
10
-101.75399999989894
20
57.622000001557126
10
-88.753999999898952
20
57.622000001557147
42
-0.41421356237311063
10
-88.253999999898923
20
57.122000001557126
10
-88.253999999898923
20
57.072000001557086
42
-0.41421356237304296
0
LWPOLYLINE
5
242
100
AcDbEntity
8
0
100
AcDbPolyline
90
8
70
1
43
0.0
10
-105.30399999989896
20
60.122000001557119
42
0.41421356237313145
10
-104.80399999989896
20
59.622000001557119
10
-104.75399999989897
20
59.622000001557119
42
0.41421356237312101
10
-104.25399999989894
20
60.122000001557119
10
-104.25399999989895
20
73.122000001557112
42
0.41421356237312101
10
-104.75399999989897
20
73.622000001557097
10
-104.80399999989896
20
73.622000001557097
42
0.41421356237307422
10
-105.30399999989899
20
73.122000001557097
0
LWPOLYLINE
5
243
100
AcDbEntity
8
0
100
AcDbPolyline
90
8
70
1
43
0.0
10
-91.01649999989894
20
22.022000001557128
42
0.4142135623730977
10
-90.516499999898926
20
21.522000001557117
10
-90.466499999898943
20
21.522000001557128
42
0.41421356237313145
10
-89.966499999898929
20
22.022000001557132
10
-89.966499999898929
20
35.022000001557139
42
0.41421356237312629
10
-90.466499999898943
20
35.522000001557132
10
-90.516499999898926
20
35.522000001557132
42
0.41421356237311846
10
-91.016499999898969
20
35.022000001557132
0
LWPOLYLINE
5
244
100
AcDbEntity
8
0
100
AcDbPolyline
90
8
70
1
43
0.0
10
-103.04149999989896
20
37.522000001557132
10
-116.04149999989893
20
37.522000001557132
42
-0.41421356237309243
10
-116.54149999989895
20
38.022000001557132
10
-116.54149999989892
20
38.072000001557136
42
-0.4142135623730977
10
-116.04149999989893
20
38.572000001557136
10
-103.04149999989896
20
38.57200000155715
42
-0.4142135623730977
10
-102.54149999989895
20
38.072000001557136
10
-102.54149999989895
20
38.022000001557132
42
-0.41421356237309243
0
LWPOLYLINE
5
245
100
AcDbEntity
8
0
100
AcDbPolyline
90
8
70
1
43
0.0
10
-138.0914999998989
20
40.572000001557143
10
-138.14149999989888
20
40.572000001557136
42
-0.41421356237307422
10
-138.64149999989894
20
41.072000001557143
10
-138.64149999989888
20
54.072000001557129
42
-0.41421356237313145
10
-138.14149999989888
20
54.572000001557129
10
-138.09149999989893
20
54.57200000155715
42
-0.41421356237312101
10
-137.59149999989884
20
54.072000001557129
10
-137.5914999998989
20
41.072000001557129
42
-0.41421356237312101
0
LWPOLYLINE
5
246
100
AcDbEntity
8
0
100
AcDbPolyline
90
8
70
1
43
0.0
10
-188.26649999989897
20
19.022000001557142
10
-188.26649999989897
20
18.972000001557142
42
-0.4142135623730977
10
-188.76649999989897
20
18.472000001557131
10
-201.76649999989894
20
18.472000001557131
42
-0.4142135623730977
10
-202.26649999989894
20
18.972000001557142
10
-202.26649999989894
20
19.022000001557142
42
-0.4142135623730977
10
-201.76649999989894
20
19.522000001557142
10
-188.76649999989897
20
19.522000001557153
42
-0.4142135623730977
0
LWPOLYLINE
5
247
100
AcDbEntity
8
0
100
AcDbPolyline
90
8
70
1
43
0.0
10
-205.31649999989895
20
22.022000001557132
42
0.4142135623730977
10
-204.81649999989895
20
21.522000001557121
10
-204.76649999989894
20
21.522000001557132
42
0.41421356237312884
10
-204.26649999989894
20
22.022000001557132
10
-204.26649999989894
20
35.022000001557139
42
0.41421356237312884
10
-204.76649999989894
20
35.522000001557132
10
-204.81649999989895
20
35.522000001557132
42
0.41421356237311846
10
-205.31649999989898
20
35.022000001557139
0
LWPOLYLINE
5
248
100
AcDbEntity
8
0
100
AcDbPolyline
90
8
70
1
43
0.0
10
-198.29149999989897
20
37.522000001557124
10
-211.29149999989895
20
37.522000001557132
42
-0.41421356237309243
10
-211.79149999989897
20
38.022000001557132
10
-211.79149999989897
20
38.072000001557136
42
-0.4142135623730977
10
-211.29149999989895
20
38.572000001557136
10
-198.29149999989897
20
38.572000001557143
42
-0.4142135623730977
10
-197.79149999989897
20
38.072000001557129
10
-197.79149999989897
20
38.022000001557132
42
-0.41421356237309243
0
LWPOLYLINE
5
249
100
AcDbEntity
8
0
100
AcDbPolyline
90
8
70
1
43
0.0
10
-203.05399999989891
20
56.572000001557129
10
-216.05399999989908
20
56.572000001557129
42
-0.41421356237308465
10
-216.55399999989896
20
57.072000001557086
10
-216.55399999989896
20
57.122000001557126
42
-0.41421356237312101
10
-216.05399999989896
20
57.622000001557126
10
-203.05399999989899
20
57.622000001557147
42
-0.41421356237312101
10
-202.55399999989893
20
57.122000001557126
10
-202.55399999989893
20
57.072000001557086
42
-0.41421356237304296
0
LWPOLYLINE
5
250
100
AcDbEntity
8
0
100
AcDbPolyline
90
8
70
1
43
0.0
10
-254.15399999989893
20
57.622000001557126
42
0.41421356237312101
10
-254.65399999989899
20
57.122000001557126
10
-254.65399999989896
20
57.072000001557086
42
0.41421356237310542
10
-254.15399999989901
20
56.572000001557129
10
-241.1539999998989
20
56.572000001557129
42
0.41421356237304296
10
-240.65399999989893
20
57.072000001557086
10
-240.65399999989893
20
57.122000001557126
42
0.41421356237312101
10
-241.15399999989899
20
57.622000001557147
0
LWPOLYLINE
5
251
100
AcDbEntity
8
0
100
AcDbPolyline
90
8
70
1
43
0.0
10
-217.34149999989896
20
37.522000001557132
10
-230.34149999989893
20
37.522000001557132
42
-0.41421356237309243
10
-230.84149999989893
20
38.022000001557132
10
-230.84149999989893
20
38.072000001557136
42
-0.4142135623730977
10
-230.34149999989893
20
38.572000001557136
10
-217.34149999989896
20
38.57200000155715
42
-0.4142135623730977
10
-216.84149999989896
20
38.072000001557136
10
-216.84149999989896
20
38.022000001557132
42
-0.41421356237309243
0
LWPOLYLINE
5
252
100
AcDbEntity
8
0
100
AcDbPolyline
90
8
70
1
43
0.0
10
-214.29149999989889
20
40.572000001557143
10
-214.34149999989887
20
40.572000001557136
42
-0.41421356237307422
10
-214.84149999989893
20
41.072000001557143
10
-214.84149999989887
20
54.072000001557129
42
-0.41421356237313145
10
-214.34149999989887
20
54.572000001557129
10
-214.29149999989889
20
54.57200000155715
42
-0.41421356237312101
10
-213.79149999989886
20
54.072000001557129
10
-213.79149999989889
20
41.072000001557129
42
-0.41421356237312101
0
LWPOLYLINE
5
253
100
AcDbEntity
8
0
100
AcDbPolyline
90
8
70
1
43
0.0
10
-257.15399999989899
20
59.622000001557119
42
0.41421356237312101
10
-256.65399999989893
20
60.122000001557119
10
-256.65399999989899
20
73.122000001557112
42
0.41421356237312101
10
-257.15399999989899
20
73.622000001557097
10
-257.203999999899
20
73.622000001557097
42
0.41421356237307422
10
-257.703999999899
20
73.122000001557097
10
-257.703999999899
20
60.122000001557119
42
0.41421356237313145
10
-257.203999999899
20
59.622000001557119
0
LWPOLYLINE
5
254
100
AcDbEntity
8
0
100
AcDbPolyline
90
8
70
1
43
0.0
10
-242.36649999989893
20
35.022000001557139
42
0.41421356237312884
10
-242.86649999989893
20
35.522000001557132
10
-242.91649999989892
20
35.522000001557132
42
0.41421356237311846
10
-243.41649999989897
20
35.022000001557139
10
-243.41649999989895
20
22.022000001557132
42
0.4142135623730977
10
-242.91649999989892
20
21.522000001557121
10
-242.86649999989893
20
21.522000001557132
42
0.41421356237312884
10
-242.36649999989893
20
22.022000001557132
0
LWPOLYLINE
5
255
100
AcDbEntity
8
0
100
AcDbPolyline
90
8
70
1
43
0.0
10
-42.341499999898851
20
54.072000001557129
10
-42.341499999898886
20
41.072000001557129
42
-0.41421356237312101
10
-42.841499999898893
20
40.572000001557143
10
-42.891499999898883
20
40.572000001557136
42
-0.41421356237307422
10
-43.391499999898926
20
41.072000001557143
10
-43.39149999989889
20
54.072000001557129
42
-0.41421356237313145
10
-42.891499999898883
20
54.572000001557129
10
-42.841499999898893
20
54.57200000155715
42
-0.41421356237312101
0
LWPOLYLINE
5
256
100
AcDbEntity
8
0
100
AcDbPolyline
90
8
70
1
43
0.0
10
-37.578999999898954
20
92.172000001557123
42
0.41421356237309509
10
-38.078999999898961
20
92.672000001557123
10
-38.128999999898952
20
92.672000001557123
42
0.41421356237309509
10
-38.628999999898959
20
92.172000001557123
10
-38.628999999898994
20
79.172000001557137
42
0.41421356237312101
10
-38.128999999898952
20
78.672000001557109
10
-38.078999999898961
20
78.672000001557137
42
0.41421356237309509
10
-37.578999999898919
20
79.172000001557137
0
LWPOLYLINE
5
257
100
AcDbEntity
8
0
100
AcDbPolyline
90
8
70
1
43
0.0
10
-28.553999999898956
20
59.622000001557119
42
0.41421356237312101
10
-28.053999999898931
20
60.122000001557119
10
-28.053999999898949
20
73.122000001557112
42
0.41421356237312101
10
-28.553999999898956
20
73.622000001557097
10
-28.603999999898946
20
73.622000001557097
42
0.41421356237307422
10
-29.103999999898988
20
73.122000001557097
10
-29.103999999898953
20
60.122000001557119
42
0.41421356237313145
10
-28.603999999898946
20
59.622000001557119
0
LWPOLYLINE
5
258
100
AcDbEntity
8
0
100
AcDbPolyline
90
8
70
1
43
0.0
10
-52.366499999898934
20
21.522000001557132
42
0.41421356237312884
10
-51.866499999898927
20
22.022000001557132
10
-51.866499999898927
20
35.022000001557139
42
0.41421356237312884
10
-52.366499999898934
20
35.522000001557132
10
-52.416499999898925
20
35.522000001557132
42
0.41421356237311846
10
-52.916499999898967
20
35.022000001557139
10
-52.916499999898932
20
22.022000001557132
42
0.4142135623730977
10
-52.416499999898925
20
21.522000001557121
0
LWPOLYLINE
5
259
100
AcDbEntity
8
0
100
AcDbPolyline
90
8
70
1
43
0.0
10
-251.89149999989888
20
54.072000001557129
10
-251.89149999989891
20
41.072000001557129
42
-0.41421356237312101
10
-252.39149999989891
20
40.572000001557143
10
-252.44149999989889
20
40.572000001557136
42
-0.41421356237307422
10
-252.94149999989895
20
41.072000001557143
10
-252.94149999989889
20
54.072000001557129
42
-0.41421356237313145
10
-252.44149999989889
20
54.572000001557129
10
-252.39149999989891
20
54.57200000155715
42
-0.41421356237312101
0
LWPOLYLINE
5
260
100
AcDbEntity
8
0
100
AcDbPolyline
90
8
70
1
43
0.0
10
-267.22899999989897
20
79.172000001557137
42
0.41421356237312101
10
-266.72899999989897
20
78.672000001557109
10
-266.67899999989896
20
78.672000001557137
42
0.41421356237309509
10
-266.17899999989896
20
79.172000001557137
10
-266.17899999989896
20
92.172000001557109
42
0.41421356237310542
10
-266.67899999989896
20
92.672000001557123
10
-266.72899999989897
20
92.672000001557123
42
0.41421356237309509
10
-267.22899999989897
20
92.172000001557123
0
LWPOLYLINE
5
261
100
AcDbEntity
8
0
100
AcDbPolyline
90
44
70
1
43
0.0
10
-138.38286974061748
20
-0.052999998442856966
10
-23.55374254041358
20
-0.052999998442836982
42
-0.41420098730811189
10
-21.553742542256941
20
-2.052914130146291
10
-21.553691069300847
20
-3.2517956291818173
42
1.0015807978001809
10
-16.553895436579626
20
-3.296306938955595
10
-16.553869740190347
20
-2.0529586642650854
42
-0.41420750913586796
10
-14.553869740617458
20
-0.052999998442834685
10
-2.0039999998989084
20
-0.052999998442834206
42
0.41421356237309243
10
-0.0039999998989268233
20
1.9470000015571678
10
-0.0039999998989401209
20
93.197000001557186
42
0.41421356237309542
10
-2.0039999998989417
20
95.197000001557171
10
-14.553869740617474
20
95.197000001557171
42
-0.41420750913586796
10
-16.553869740190347
20
97.196958667379434
10
-16.553895436579641
20
98.440306942069853
42
1.0015807978001632
10
-21.553691069300864
20
98.395795632296071
10
-21.553742542256948
20
97.19691413326062
42
-0.41420098730811727
10
-23.553742540413598
20
95.197000001557157
10
-138.38286974061748
20
95.197000001557157
42
-0.41420750913586762
10
-140.38286974019036
20
97.19695866737942
10
-140.38289543657964
20
98.440306942069853
42
1.0015807978001809
10
-145.38269106930085
20
98.395795632296071
10
-145.38274254225695
20
97.19691413326062
42
-0.41420098730811727
10
-147.3827425404136
20
95.197000001557157
10
-262.21186974061743
20
95.1970000015571
42
-0.41420750913586502
10
-264.21186974019031
20
97.196958667379363
10
-264.2118954365796
20
98.440306942069839
42
1.0015807978001632
10
-269.21169106930085
20
98.395795632296071
10
-269.2117425422569
20
97.196914133260591
42
-0.41420098730811727
10
-271.21174254041358
20
95.197000001557115
10
-283.75399999989895
20
95.197000001557115
42
0.41421356237309509
10
-285.75399999989895
20
93.197000001557129
10
-285.75399999989895
20
1.9470000015571158
42
0.41421356237309492
10
-283.75399999989895
20
-0.052999998442883403
10
-271.21174254041358
20
-0.052999998442869456
42
-0.41420098730811777
10
-269.2117425422569
20
-2.0529141301463545
10
-269.21169106930085
20
-3.2517956291818173
42
1.0015807978001632
10
-264.2118954365796
20
-3.296306938955595
10
-264.21186974019031
20
-2.0529586642651485
42
-0.41420750913586846
10
-262.21186974061743
20
-0.052999998442876478
10
-147.3827425404136
20
-0.052999998442848639
42
-0.41420098730811777
10
-145.38274254225695
20
-2.0529141301463341
10
-145.38269106930085
20
-3.2517956291818173
42
1.0015807978001809
10
-140.38289543657964
20
-3.296306938955595
10
-140.38286974019036
20
-2.052958664265117
42
-0.41420750913586696
0
LWPOLYLINE
5
262
100
AcDbEntity
8
0
100
AcDbPolyline
90
8
70
1
43
0.0
10
-89.228999999898946
20
2.9720000015571397
10
-89.228999999898946
20
15.972000001557138
42
-0.41421356237312756
10
-88.728999999898946
20
16.472000001557138
10
-82.728999999898889
20
16.472000001557149
42
-0.41421356237309637
10
-82.228999999898889
20
15.972000001557138
10
-82.228999999898917
20
2.9720000015571406
42
-0.41421356237309637
10
-82.728999999898917
20
2.4720000015571388
10
-88.728999999898946
20
2.4720000015571335
42
-0.41421356237309437
0
LWPOLYLINE
5
263
100
AcDbEntity
8
0
100
AcDbPolyline
90
8
70
1
43
0.0
10
-196.52899999989893
20
15.972000001557138
10
-196.52899999989896
20
2.9720000015571397
42
-0.41421356237309409
10
-197.02899999989896
20
2.4720000015571415
10
-203.02899999989899
20
2.4720000015571313
42
-0.41421356237309509
10
-203.52899999989899
20
2.9720000015571384
10
-203.52899999989899
20
15.972000001557138
42
-0.41421356237309637
10
-203.02899999989899
20
16.472000001557138
10
-197.02899999989893
20
16.472000001557131
42
-0.41421356237312756
0
CIRCLE
5
264
100
AcDbEntity
8
0
100
AcDbCircle
10
-71.441499999898937
20
18.99700000155714
30
8.5830506590944822e-09
40
0.52500000000000213
210
1.3634246772254978e-16
220
1.9721522630525295e-31
230
1
0
CIRCLE
5
265
100
AcDbEntity
8
0
100
AcDbCircle
10
-147.64149999989894
20
18.997000001557144
30
8.58306092865746e-09
40
0.52500000000000213
210
1.3634246772254978e-16
220
1.9721522630525295e-31
230
1
0
CIRCLE
5
266
100
AcDbEntity
8
0
100
AcDbCircle
10
-214.31649999989895
20
38.04700000155713
30
8.5830767493355609e-09
40
0.5250000000000199
210
1.3634246772254978e-16
220
1.9721522630525295e-31
230
1
0
CIRCLE
5
267
100
AcDbEntity
8
0
100
AcDbCircle
10
-138.11649999989893
20
38.04700000155713
30
8.5830662022168269e-09
40
0.52500000000000213
210
1.3634246772254978e-16
220
1.9721522630525295e-31
230
1
0
CIRCLE
5
268
100
AcDbEntity
8
0
100
AcDbCircle
10
-61.916499999898953
20
38.04700000155713
30
8.583055655098093e-09
40
0.52500000000000213
210
1.3634246772254978e-16
220
1.9721522630525295e-31
230
1
0
CIRCLE
5
269
100
AcDbEntity
8
0
100
AcDbCircle
10
-104.77899999989894
20
57.097000001557106
30
8.58306814510712e-09
40
0.52500000000000213
210
1.3634246772254978e-16
220
1.9721522630525295e-31
230
1
0
CIRCLE
5
270
100
AcDbEntity
8
0
100
AcDbCircle
10
-180.97899999989895
20
57.097000001557106
30
8.583078692225854e-09
40
0.52499999999998437
210
1.3634246772254978e-16
220
1.9721522630525295e-31
230
1
0
CIRCLE
5
271
100
AcDbEntity
8
0
100
AcDbCircle
10
-238.12899999989895
20
57.097000001557099
30
8.5830864637870263e-09
40
0.5250000000000199
210
1.3634246772254978e-16
220
1.9721522630525295e-31
230
1
0
CIRCLE
5
272
100
AcDbEntity
8
0
100
AcDbCircle
10
-209.55399999989896
20
76.147000001557117
30
8.5830889617888317e-09
40
0.52499999999998437
210
1.3634246772254978e-16
220
1.9721522630525295e-31
230
1
0
CIRCLE
5
273
100
AcDbEntity
8
0
100
AcDbCircle
10
-133.35399999989897
20
76.147000001557117
30
8.5830789697816101e-09
40
0.52500000000000213
210
1.3634246772254978e-16
220
1.9721522630525295e-31
230
1
0
CIRCLE
5
274
100
AcDbEntity
8
0
100
AcDbCircle
10
-57.15399999989895
20
76.147000001557117
30
8.5830684226628762e-09
40
0.52500000000000213
210
1.3634246772254978e-16
220
1.9721522630525295e-31
230
1
0
CIRCLE
5
275
100
AcDbEntity
8
0
100
AcDbCircle
10
-114.30399999989895
20
76.147000001557117
30
8.5830761942240485e-09
40
0.52500000000000213
210
1.3634246772254978e-16
220
1.9721522630525295e-31
230
1
0
CIRCLE
5
276
100
AcDbEntity
8
0
100
AcDbCircle
10
-190.50399999989895
20
76.147000001557117
30
8.5830864637870263e-09
40
0.52499999999998437
210
1.3634246772254978e-16
220
1.9721522630525295e-31
230
1
0
CIRCLE
5
277
100
AcDbEntity
8
0
100
AcDbCircle
10
-200.02899999989896
20
57.097000001557106
30
8.5830811902276594e-09
40
0.52499999999998437
210
1.3634246772254978e-16
220
1.9721522630525295e-31
230
1
0
CIRCLE
5
278
100
AcDbEntity
8
0
100
AcDbCircle
10
-123.82899999989895
20
57.097000001557106
30
8.5830709206646816e-09
40
0.52500000000000213
210
1.3634246772254978e-16
220
1.9721522630525295e-31
230
1
0
CIRCLE
5
279
100
AcDbEntity
8
0
100
AcDbCircle
10
-47.628999999898944
20
57.097000001557106
30
8.5830603735459476e-09
40
0.52500000000000213
210
1.3634246772254978e-16
220
1.9721522630525295e-31
230
1
0
CIRCLE
5
280
100
AcDbEntity
8
0
100
AcDbCircle
10
-119.06649999989895
20
38.04700000155713
30
8.5830637042150215e-09
40
0.52500000000000213
210
1.3634246772254978e-16
220
1.9721522630525295e-31
230
1
0
CIRCLE
5
281
100
AcDbEntity
8
0
100
AcDbCircle
10
-195.26649999989897
20
38.04700000155713
30
8.5830739737779993e-09
40
0.52499999999998437
210
1.3634246772254978e-16
220
1.9721522630525295e-31
230
1
0
CIRCLE
5
282
100
AcDbEntity
8
0
100
AcDbCircle
10
-223.84149999989893
20
18.997000001557144
30
8.5830714757761939e-09
40
0.52499999999998437
210
1.3634246772254978e-16
220
1.9721522630525295e-31
230
1
0
CIRCLE
5
283
100
AcDbEntity
8
0
100
AcDbCircle
10
-166.69149999989895
20
18.997000001557144
30
8.5830637042150215e-09
40
0.52499999999998437
210
1.3634246772254978e-16
220
1.9721522630525295e-31
230
1
0
CIRCLE
5
284
100
AcDbEntity
8
0
100
AcDbCircle
10
-90.491499999898934
20
18.997000001557144
30
8.5830531570962876e-09
40
0.52500000000000213
210
1.3634246772254978e-16
220
1.9721522630525295e-31
230
1
0
CIRCLE
5
285
100
AcDbEntity
8
0
100
AcDbCircle
10
-128.59149999989893
20
18.997000001557144
30
8.5830584306556545e-09
40
0.52500000000000213
210
1.3634246772254978e-16
220
1.9721522630525295e-31
230
1
0
CIRCLE
5
286
100
AcDbEntity
8
0
100
AcDbCircle
10
-204.79149999989892
20
18.99700000155714
30
8.5830687002186323e-09
40
0.52499999999998437
210
1.3634246772254978e-16
220
1.9721522630525295e-31
230
1
0
CIRCLE
5
287
100
AcDbEntity
8
0
100
AcDbCircle
10
-233.36649999989896
20
38.04700000155713
30
8.5830792473373663e-09
40
0.5250000000000199
210
1.3634246772254978e-16
220
1.9721522630525295e-31
230
1
0
CIRCLE
5
288
100
AcDbEntity
8
0
100
AcDbCircle
10
-157.16649999989895
20
38.04700000155713
30
8.5830687002186323e-09
40
0.52500000000000213
210
1.3634246772254978e-16
220
1.9721522630525295e-31
230
1
0
CIRCLE
5
289
100
AcDbEntity
8
0
100
AcDbCircle
10
-80.966499999898943
20
38.04700000155713
30
8.5830584306556545e-09
40
0.52500000000000213
210
1.3634246772254978e-16
220
1.9721522630525295e-31
230
1
0
CIRCLE
5
290
100
AcDbEntity
8
0
100
AcDbCircle
10
-85.728999999898946
20
57.097000001557106
30
8.5830656471053146e-09
40
0.52500000000000213
210
1.3634246772254978e-16
220
1.9721522630525295e-31
230
1
0
CIRCLE
5
291
100
AcDbEntity
8
0
100
AcDbCircle
10
-161.92899999989893
20
57.097000001557106
30
8.5830759166682924e-09
40
0.52499999999998437
210
1.3634246772254978e-16
220
1.9721522630525295e-31
230
1
0
CIRCLE
5
292
100
AcDbEntity
8
0
100
AcDbCircle
10
-228.60399999989895
20
76.147000001557117
30
8.5830917373463933e-09
40
0.5250000000000199
210
1.3634246772254978e-16
220
1.9721522630525295e-31
230
1
0
CIRCLE
5
293
100
AcDbEntity
8
0
100
AcDbCircle
10
-152.40399999989896
20
76.147000001557117
30
8.5830811902276594e-09
40
0.52500000000000213
210
1.3634246772254978e-16
220
1.9721522630525295e-31
230
1
0
CIRCLE
5
294
100
AcDbEntity
8
0
100
AcDbCircle
10
-76.203999999898969
20
76.147000001557117
30
8.5830711982204377e-09
40
0.52500000000000213
210
1.3634246772254978e-16
220
1.9721522630525295e-31
230
1
0
CIRCLE
5
295
100
AcDbEntity
8
0
100
AcDbCircle
10
-95.253999999898952
20
76.147000001557117
30
8.5830736962222431e-09
40
0.52500000000000213
210
1.3634246772254978e-16
220
1.9721522630525295e-31
230
1
0
CIRCLE
5
296
100
AcDbEntity
8
0
100
AcDbCircle
10
-171.45399999989894
20
76.147000001557117
30
8.5830839657852209e-09
40
0.52499999999998437
210
1.3634246772254978e-16
220
1.9721522630525295e-31
230
1
0
CIRCLE
5
297
100
AcDbEntity
8
0
100
AcDbCircle
10
-247.65399999989896
20
76.147000001557117
30
8.5830942353481987e-09
40
0.5250000000000199
210
1.3634246772254978e-16
220
1.9721522630525295e-31
230
1
0
CIRCLE
5
298
100
AcDbEntity
8
0
100
AcDbCircle
10
-219.07899999989894
20
57.097000001557106
30
8.5830839657852209e-09
40
0.5250000000000199
210
1.3634246772254978e-16
220
1.9721522630525295e-31
230
1
0
CIRCLE
5
299
100
AcDbEntity
8
0
100
AcDbCircle
10
-142.87899999989895
20
57.097000001557106
30
8.583073418666487e-09
40
0.52500000000000213
210
1.3634246772254978e-16
220
1.9721522630525295e-31
230
1
0
CIRCLE
5
300
100
AcDbEntity
8
0
100
AcDbCircle
10
-66.678999999898963
20
57.097000001557106
30
8.583062871547753e-09
40
0.52500000000000213
210
1.3634246772254978e-16
220
1.9721522630525295e-31
230
1
0
CIRCLE
5
301
100
AcDbEntity
8
0
100
AcDbCircle
10
-100.01649999989894
20
38.04700000155713
30
8.58306092865746e-09
40
0.52500000000000213
210
1.3634246772254978e-16
220
1.9721522630525295e-31
230
1
0
CIRCLE
5
302
100
AcDbEntity
8
0
100
AcDbCircle
10
-176.21649999989896
20
38.04700000155713
30
8.5830714757761939e-09
40
0.52499999999998437
210
1.3634246772254978e-16
220
1.9721522630525295e-31
230
1
0
CIRCLE
5
303
100
AcDbEntity
8
0
100
AcDbCircle
10
-185.74149999989896
20
18.997000001557144
30
8.5830662022168269e-09
40
0.52499999999998437
210
1.3634246772254978e-16
220
1.9721522630525295e-31
230
1
0
CIRCLE
5
304
100
AcDbEntity
8
0
100
AcDbCircle
10
-109.54149999989895
20
18.997000001557144
30
8.583055655098093e-09
40
0.52500000000000213
210
1.3634246772254978e-16
220
1.9721522630525295e-31
230
1
0
CIRCLE
5
305
100
AcDbEntity
8
0
100
AcDbCircle
10
-38.10399999989896
20
76.147000001557117
30
8.5830659246610708e-09
40
0.52499999999999769
210
1.3634246772254978e-16
220
1.9721522630525295e-31
230
1
0
CIRCLE
5
306
100
AcDbEntity
8
0
100
AcDbCircle
10
-42.866499999898892
20
38.047000001557144
30
8.5830531570962876e-09
40
0.52500000000000213
210
1.3634246772254978e-16
220
1.9721522630525295e-31
230
1
0
CIRCLE
5
307
100
AcDbEntity
8
0
100
AcDbCircle
10
-242.89149999989829
20
18.997000001557126
30
8.5830739737779993e-09
40
0.52499999999998437
210
1.3634246772254978e-16
220
1.9721522630525295e-31
230
1
0
CIRCLE
5
308
100
AcDbEntity
8
0
100
AcDbCircle
10
-266.703999999899
20
76.147000001557117
30
8.5830970109057603e-09
40
0.5250000000000199
210
1.3634246772254978e-16
220
1.9721522630525295e-31
230
1
0
CIRCLE
5
309
100
AcDbEntity
8
0
100
AcDbCircle
10
-252.41649999989889
20
38.047000001557137
30
8.5830814677834155e-09
40
0.52499999999998437
210
1.3634246772254978e-16
220
1.9721522630525295e-31
230
1
0
CIRCLE
5
310
100
AcDbEntity
8
0
100
AcDbCircle
10
-52.391499999898258
20
18.997000001557126
30
8.5830478835369206e-09
40
0.52500000000000213
210
1.3634246772254978e-16
220
1.9721522630525295e-31
230
1
0
CIRCLE
5
311
100
AcDbEntity
8
0
100
AcDbCircle
10
-28.578999999898951
20
57.09700000155712
30
8.5830578755441422e-09
40
0.52500000000000213
210
1.3634246772254978e-16
220
1.9721522630525295e-31
230
1
0
CIRCLE
5
312
100
AcDbEntity
8
0
100
AcDbCircle
10
-257.17899999989896
20
57.097000001555315
30
8.5830889617888317e-09
40
0.52499999999998437
210
1.3634246772254978e-16
220
1.9721522630525295e-31
230
1
0
CIRCLE
5
313
100
AcDbEntity
8
0
100
AcDbCircle
10
-19.053828406866856
20
98.422000001557166
30
8.5830700879974131e-09
40
1.2500000000000022
210
-5.7372321033938287e-32
220
2.4651903288156619e-31
230
1
0
CIRCLE
5
314
100
AcDbEntity
8
0
100
AcDbCircle
10
-142.88282840686685
20
-3.2779999984429153
30
8.5830703655531693e-09
40
1.25
210
-5.7372321033938287e-32
220
2.4651903288156619e-31
230
1
0
CIRCLE
5
315
100
AcDbEntity
8
0
100
AcDbCircle
10
-266.71182840686686
20
-3.2779999984429153
30
8.5830700879974131e-09
40
1.25
210
-5.7372321033938287e-32
220
2.4651903288156619e-31
230
1
0
CIRCLE
5
316
100
AcDbEntity
8
0
100
AcDbCircle
10
-142.88282840686685
20
98.422000001557166
30
8.5830703655531693e-09
40
1.25
210
-5.7372321033938287e-32
220
2.4651903288156619e-31
230
1
0
CIRCLE
5
317
100
AcDbEntity
8
0
100
AcDbCircle
10
-19.053828406866842
20
-3.2779999984429153
30
8.5830700879974131e-09
40
1.25
210
-5.7372321033938287e-32
220
2.4651903288156619e-31
230
1
0
CIRCLE
5
318
100
AcDbEntity
8
0
100
AcDbCircle
10
-266.71182840686686
20
98.422000001557166
30
8.5830700879974131e-09
40
1.25
210
-5.7372321033938287e-32
220
2.4651903288156619e-31
230
1
0
ENDSEC
0
SECTION
2
OBJECTS
0
DICTIONARY
5
C
100
AcDbDictionary
3
ACAD_GROUP
350
D
3
ACAD_MLINESTYLE
350
17
0
DICTIONARY
5
D
100
AcDbDictionary
0
DICTIONARY
5
1A
330
C
100
AcDbDictionary
0
DICTIONARY
5
17
100
AcDbDictionary
0
ENDSEC
0
EOF
